<svg xmlns="http://www.w3.org/2000/svg" xmlns:xlink="http://www.w3.org/1999/xlink" width="50px" height="50px" viewBox="0 0 50 50"><g id="surface1"><path style=" stroke:none;fill-rule:nonzero;fill:rgb(99.607843%,99.607843%,99.607843%);fill-opacity:1;" d="M 40 6.199219 C 40.054688 6.242188 40.109375 6.285156 40.167969 6.332031 C 41.6875 7.535156 43.058594 8.933594 44.199219 10.5 C 44.285156 10.613281 44.367188 10.726562 44.453125 10.835938 C 46.652344 13.800781 48.070312 17.269531 48.699219 20.898438 C 48.714844 20.992188 48.734375 21.082031 48.75 21.179688 C 49.1875 23.769531 49.15625 26.511719 48.699219 29.101562 C 48.683594 29.191406 48.667969 29.285156 48.652344 29.382812 C 47.824219 33.972656 45.644531 38.296875 42.371094 41.625 C 42.203125 41.796875 42.039062 41.96875 41.871094 42.144531 C 41.183594 42.855469 40.453125 43.488281 39.660156 44.082031 C 39.519531 44.1875 39.378906 44.296875 39.238281 44.402344 C 34.351562 48.113281 27.96875 49.613281 21.917969 48.875 C 18.101562 48.347656 14.472656 47.003906 11.300781 44.800781 C 11.195312 44.726562 11.195312 44.726562 11.089844 44.652344 C 10.113281 43.96875 9.230469 43.203125 8.378906 42.375 C 8.207031 42.203125 8.03125 42.039062 7.855469 41.871094 C 7.09375 41.136719 6.433594 40.347656 5.800781 39.5 C 5.695312 39.363281 5.695312 39.363281 5.585938 39.21875 C 5.03125 38.480469 4.554688 37.703125 4.101562 36.898438 C 4.054688 36.824219 4.011719 36.746094 3.96875 36.667969 C 0.835938 31.085938 0.175781 24.433594 1.898438 18.300781 C 2.570312 15.925781 3.585938 13.625 5 11.601562 C 5.050781 11.523438 5.101562 11.449219 5.15625 11.375 C 5.90625 10.300781 6.710938 9.308594 7.628906 8.375 C 7.796875 8.203125 7.960938 8.03125 8.128906 7.855469 C 8.863281 7.09375 9.648438 6.429688 10.5 5.800781 C 10.558594 5.757812 10.613281 5.714844 10.675781 5.671875 C 18.539062 -0.191406 30.03125 -0.761719 40 6.199219 Z M 40 6.199219 "></path><path style=" stroke:none;fill-rule:nonzero;fill:rgb(89.803922%,1.176471%,1.176471%);fill-opacity:1;" d="M 27.269531 9.90625 C 28.164062 10.429688 28.664062 11.140625 29.199219 12.011719 C 29.269531 12.125 29.339844 12.234375 29.410156 12.351562 C 29.609375 12.667969 29.804688 12.984375 30 13.300781 C 30.085938 13.4375 30.171875 13.574219 30.257812 13.714844 C 30.382812 13.917969 30.511719 14.125 30.636719 14.332031 C 31 14.925781 31.375 15.507812 31.753906 16.089844 C 31.847656 16.234375 31.9375 16.375 32.03125 16.519531 C 32.078125 16.589844 32.125 16.664062 32.175781 16.738281 C 32.488281 17.226562 32.800781 17.71875 33.105469 18.210938 C 33.425781 18.726562 33.75 19.230469 34.085938 19.730469 C 34.460938 20.289062 34.824219 20.851562 35.179688 21.417969 C 35.757812 22.339844 36.347656 23.25 36.941406 24.160156 C 37.550781 25.089844 38.15625 26.023438 38.75 26.964844 C 38.847656 27.117188 38.949219 27.273438 39.050781 27.421875 C 39.3125 27.820312 39.472656 28.113281 39.5 28.601562 C 39.503906 28.675781 39.511719 28.753906 39.515625 28.835938 C 39.546875 29.703125 39.285156 30.246094 38.714844 30.890625 C 38.335938 31.261719 37.894531 31.53125 37.445312 31.8125 C 37.34375 31.875 37.242188 31.941406 37.140625 32.007812 C 36.929688 32.140625 36.71875 32.273438 36.511719 32.402344 C 36.214844 32.589844 35.917969 32.78125 35.625 32.96875 C 34.789062 33.503906 33.953125 34.03125 33.105469 34.542969 C 32.109375 35.148438 31.140625 35.785156 30.167969 36.425781 C 29.308594 36.988281 28.445312 37.542969 27.585938 38.09375 C 27.476562 38.164062 27.367188 38.234375 27.257812 38.304688 C 27.035156 38.445312 26.816406 38.585938 26.59375 38.726562 C 25.945312 39.136719 25.945312 39.136719 25.316406 39.578125 C 24.507812 40.164062 23.703125 40.257812 22.722656 40.152344 C 22.125 40.011719 21.625 39.613281 21.300781 39.101562 C 21.003906 38.492188 20.984375 37.714844 21.164062 37.070312 C 21.582031 36.15625 22.417969 35.625 23.242188 35.117188 C 23.339844 35.058594 23.4375 34.996094 23.539062 34.933594 C 23.824219 34.753906 24.113281 34.578125 24.398438 34.398438 C 24.605469 34.273438 24.808594 34.144531 25.011719 34.015625 C 25.140625 33.9375 25.265625 33.859375 25.390625 33.78125 C 26.332031 33.195312 27.265625 32.597656 28.199219 32 C 28.300781 31.933594 28.40625 31.871094 28.511719 31.800781 C 29.609375 31.101562 30.707031 30.398438 31.800781 29.6875 C 31.878906 29.636719 31.957031 29.585938 32.035156 29.535156 C 32.558594 29.191406 33.082031 28.847656 33.601562 28.5 C 33.476562 28.179688 33.34375 27.886719 33.164062 27.59375 C 33.117188 27.519531 33.074219 27.445312 33.027344 27.367188 C 32.980469 27.289062 32.929688 27.210938 32.882812 27.132812 C 32.808594 27.011719 32.808594 27.011719 32.730469 26.886719 C 32.421875 26.386719 32.101562 25.902344 31.757812 25.425781 C 31.480469 25.03125 31.242188 24.617188 31 24.199219 C 30.609375 24.265625 30.300781 24.457031 29.96875 24.664062 C 29.90625 24.703125 29.839844 24.738281 29.773438 24.78125 C 28.863281 25.339844 27.96875 25.933594 27.074219 26.519531 C 26.128906 27.140625 25.179688 27.753906 24.226562 28.355469 C 24.160156 28.398438 24.09375 28.441406 24.027344 28.484375 C 23.214844 28.992188 22.558594 29.121094 21.601562 29 C 20.996094 28.769531 20.597656 28.480469 20.300781 27.898438 C 20.300781 27.835938 20.300781 27.769531 20.300781 27.699219 C 20.234375 27.699219 20.167969 27.699219 20.101562 27.699219 C 19.890625 27.074219 19.875 26.269531 20.15625 25.664062 C 20.605469 24.945312 21.238281 24.476562 21.949219 24.042969 C 22.070312 23.96875 22.070312 23.96875 22.195312 23.890625 C 22.464844 23.726562 22.730469 23.5625 23 23.398438 C 23.097656 23.339844 23.195312 23.28125 23.292969 23.222656 C 23.691406 22.980469 24.09375 22.734375 24.492188 22.492188 C 25.070312 22.140625 25.640625 21.78125 26.199219 21.402344 C 26.605469 21.128906 27.015625 20.863281 27.425781 20.601562 C 27.5 20.550781 27.578125 20.5 27.65625 20.449219 C 27.835938 20.332031 28.019531 20.214844 28.199219 20.101562 C 28.15625 19.570312 27.863281 19.210938 27.570312 18.789062 C 27.460938 18.628906 27.351562 18.46875 27.242188 18.308594 C 27.1875 18.226562 27.128906 18.144531 27.070312 18.058594 C 26.785156 17.628906 26.511719 17.191406 26.238281 16.757812 C 26.160156 16.632812 26.160156 16.632812 26.082031 16.511719 C 25.992188 16.367188 25.902344 16.222656 25.8125 16.078125 C 25.710938 15.917969 25.605469 15.757812 25.5 15.601562 C 24.988281 15.769531 24.570312 16.066406 24.125 16.363281 C 23.945312 16.480469 23.765625 16.597656 23.585938 16.714844 C 23.492188 16.777344 23.394531 16.839844 23.296875 16.90625 C 22.785156 17.242188 22.265625 17.570312 21.75 17.898438 C 20.738281 18.546875 19.730469 19.199219 18.726562 19.851562 C 18.085938 20.269531 17.441406 20.6875 16.800781 21.101562 C 16.699219 21.164062 16.601562 21.230469 16.496094 21.296875 C 16.164062 21.507812 15.832031 21.722656 15.5 21.9375 C 15.34375 22.039062 15.34375 22.039062 15.179688 22.144531 C 13.191406 23.417969 13.191406 23.417969 12.101562 23.300781 C 11.335938 23.109375 10.855469 22.628906 10.398438 22 C 10.164062 21.292969 10.25 20.511719 10.484375 19.8125 C 10.863281 19.113281 11.410156 18.765625 12.074219 18.363281 C 12.273438 18.238281 12.472656 18.113281 12.671875 17.992188 C 12.773438 17.925781 12.878906 17.863281 12.984375 17.796875 C 13.507812 17.472656 14.023438 17.140625 14.542969 16.804688 C 14.648438 16.738281 14.753906 16.671875 14.859375 16.605469 C 15.570312 16.148438 16.28125 15.6875 16.988281 15.226562 C 17.910156 14.621094 18.835938 14.03125 19.769531 13.445312 C 20.164062 13.199219 20.554688 12.949219 20.949219 12.699219 C 21.109375 12.601562 21.265625 12.5 21.421875 12.402344 C 21.746094 12.195312 22.070312 11.992188 22.394531 11.785156 C 22.792969 11.535156 23.1875 11.285156 23.585938 11.035156 C 23.722656 10.949219 23.859375 10.863281 23.996094 10.773438 C 24.171875 10.664062 24.347656 10.554688 24.523438 10.445312 C 24.621094 10.382812 24.714844 10.324219 24.8125 10.261719 C 25.644531 9.792969 26.34375 9.640625 27.269531 9.90625 Z M 27.269531 9.90625 "></path><path style=" stroke:none;fill-rule:nonzero;fill:rgb(18.039216%,18.039216%,18.039216%);fill-opacity:1;" d="M 25.699219 17.398438 C 26.53125 18.027344 26.53125 18.027344 26.699219 18.5 C 26.730469 18.824219 26.730469 18.824219 26.730469 19.1875 C 26.734375 19.308594 26.734375 19.425781 26.738281 19.550781 C 26.660156 20.28125 26.222656 20.8125 25.699219 21.300781 C 25.347656 21.554688 24.976562 21.777344 24.601562 22 C 24.425781 22.109375 24.253906 22.21875 24.082031 22.332031 C 23.640625 22.613281 23.195312 22.890625 22.75 23.167969 C 20.757812 24.410156 20.757812 24.410156 18.800781 25.699219 C 18.855469 26.09375 18.972656 26.355469 19.191406 26.6875 C 19.25 26.78125 19.308594 26.871094 19.371094 26.964844 C 19.433594 27.0625 19.496094 27.15625 19.5625 27.257812 C 19.691406 27.453125 19.820312 27.652344 19.949219 27.851562 C 20.007812 27.945312 20.070312 28.039062 20.132812 28.136719 C 20.390625 28.539062 20.625 28.949219 20.859375 29.363281 C 21.054688 29.691406 21.269531 29.996094 21.5 30.300781 C 21.808594 30.238281 22.03125 30.136719 22.296875 29.964844 C 22.371094 29.917969 22.445312 29.871094 22.523438 29.820312 C 22.644531 29.742188 22.644531 29.742188 22.769531 29.664062 C 22.851562 29.609375 22.9375 29.554688 23.023438 29.5 C 23.28125 29.335938 23.542969 29.167969 23.800781 29 C 23.878906 28.949219 23.957031 28.898438 24.039062 28.847656 C 24.398438 28.613281 24.761719 28.378906 25.121094 28.144531 C 25.429688 27.945312 25.738281 27.746094 26.050781 27.550781 C 26.53125 27.242188 27.011719 26.933594 27.492188 26.625 C 27.566406 26.578125 27.640625 26.53125 27.714844 26.480469 C 28.125 26.21875 28.125 26.21875 28.519531 25.929688 C 29.117188 25.5 29.792969 25.53125 30.5 25.601562 C 31.136719 25.789062 31.582031 26.1875 31.960938 26.730469 C 32.234375 27.261719 32.1875 27.894531 32.023438 28.460938 C 31.722656 29.167969 31.308594 29.628906 30.664062 30.042969 C 30.597656 30.085938 30.535156 30.128906 30.46875 30.171875 C 30.246094 30.316406 30.023438 30.457031 29.800781 30.601562 C 29.714844 30.65625 29.628906 30.707031 29.542969 30.765625 C 29.078125 31.0625 28.609375 31.359375 28.144531 31.65625 C 27.671875 31.953125 27.199219 32.257812 26.730469 32.5625 C 25.90625 33.097656 25.078125 33.621094 24.246094 34.144531 C 23.988281 34.308594 23.730469 34.472656 23.472656 34.636719 C 23.386719 34.691406 23.300781 34.746094 23.210938 34.800781 C 23.042969 34.90625 22.878906 35.011719 22.714844 35.117188 C 22.640625 35.164062 22.566406 35.210938 22.488281 35.261719 C 22.421875 35.300781 22.355469 35.34375 22.289062 35.386719 C 21.765625 35.699219 21.765625 35.699219 21.398438 35.699219 C 21.398438 35.765625 21.398438 35.832031 21.398438 35.898438 C 20.003906 35.957031 20.003906 35.957031 19.5 35.601562 C 19.367188 35.507812 19.367188 35.507812 19.230469 35.410156 C 18.757812 35.011719 18.464844 34.464844 18.144531 33.945312 C 18.039062 33.773438 17.929688 33.605469 17.824219 33.433594 C 17.714844 33.265625 17.609375 33.09375 17.503906 32.921875 C 17.21875 32.472656 16.929688 32.027344 16.636719 31.582031 C 16.007812 30.617188 15.390625 29.644531 14.773438 28.671875 C 14.601562 28.402344 14.429688 28.132812 14.253906 27.863281 C 14.148438 27.695312 14.039062 27.523438 13.929688 27.355469 C 13.855469 27.242188 13.855469 27.242188 13.78125 27.125 C 13.277344 26.332031 12.964844 25.664062 13.101562 24.699219 C 13.503906 23.363281 14.796875 22.800781 15.902344 22.109375 C 16.359375 21.828125 16.8125 21.535156 17.261719 21.242188 C 17.332031 21.199219 17.402344 21.152344 17.472656 21.105469 C 17.683594 20.972656 17.890625 20.835938 18.101562 20.699219 C 19.398438 19.859375 20.699219 19.019531 22.003906 18.191406 C 22.203125 18.0625 22.40625 17.929688 22.605469 17.800781 C 22.75 17.707031 22.75 17.707031 22.898438 17.609375 C 23.027344 17.527344 23.027344 17.527344 23.160156 17.441406 C 23.933594 16.988281 24.925781 16.921875 25.699219 17.398438 Z M 25.699219 17.398438 "></path><path style=" stroke:none;fill-rule:nonzero;fill:rgb(97.254902%,94.509804%,94.509804%);fill-opacity:1;" d="M 30.90625 24.113281 C 31.15625 24.222656 31.21875 24.332031 31.355469 24.570312 C 31.398438 24.644531 31.445312 24.71875 31.492188 24.796875 C 31.558594 24.917969 31.558594 24.917969 31.632812 25.042969 C 31.730469 25.210938 31.828125 25.375 31.925781 25.542969 C 31.996094 25.660156 31.996094 25.660156 32.070312 25.785156 C 32.226562 26.039062 32.394531 26.285156 32.570312 26.53125 C 32.839844 26.910156 33.101562 27.296875 33.355469 27.6875 C 33.425781 27.792969 33.496094 27.902344 33.570312 28.011719 C 33.699219 28.300781 33.699219 28.300781 33.632812 28.503906 C 33.484375 28.722656 33.363281 28.820312 33.136719 28.957031 C 33.058594 29.003906 32.984375 29.046875 32.910156 29.09375 C 32.785156 29.167969 32.785156 29.167969 32.664062 29.242188 C 32.488281 29.351562 32.3125 29.457031 32.140625 29.566406 C 32.050781 29.621094 31.960938 29.675781 31.867188 29.734375 C 31.449219 29.996094 31.035156 30.265625 30.617188 30.539062 C 29.808594 31.066406 28.996094 31.585938 28.179688 32.105469 C 27.6875 32.417969 27.199219 32.730469 26.710938 33.042969 C 25.972656 33.519531 25.226562 33.984375 24.480469 34.449219 C 23.816406 34.863281 23.15625 35.28125 22.5 35.699219 C 22.5 35.378906 22.527344 35.265625 22.699219 35 C 22.929688 34.828125 22.929688 34.828125 23.21875 34.65625 C 23.324219 34.59375 23.429688 34.527344 23.539062 34.460938 C 23.597656 34.429688 23.652344 34.394531 23.710938 34.359375 C 24.011719 34.183594 24.308594 34.003906 24.605469 33.824219 C 24.664062 33.785156 24.726562 33.75 24.785156 33.710938 C 25.300781 33.402344 25.804688 33.078125 26.304688 32.75 C 27.167969 32.183594 28.035156 31.628906 28.90625 31.074219 C 29.207031 30.882812 29.503906 30.691406 29.800781 30.5 C 29.90625 30.429688 30.015625 30.363281 30.125 30.292969 C 30.230469 30.222656 30.335938 30.152344 30.445312 30.082031 C 30.539062 30.023438 30.632812 29.960938 30.730469 29.898438 C 31.34375 29.449219 31.824219 28.949219 32 28.199219 C 32.050781 27.660156 32.097656 27.105469 31.855469 26.605469 C 31.523438 26.210938 31.164062 26.015625 30.699219 25.800781 C 30.632812 25.765625 30.566406 25.734375 30.5 25.699219 C 30.292969 25.683594 30.082031 25.679688 29.875 25.675781 C 29.707031 25.671875 29.707031 25.671875 29.535156 25.667969 C 28.867188 25.734375 28.339844 26.15625 27.792969 26.519531 C 27.070312 26.992188 26.339844 27.453125 25.601562 27.898438 C 25.601562 27.601562 25.601562 27.601562 25.699219 27.300781 C 25.910156 27.152344 26.121094 27.019531 26.34375 26.886719 C 27.125 26.414062 27.886719 25.917969 28.648438 25.417969 C 28.972656 25.207031 29.292969 24.996094 29.617188 24.785156 C 29.792969 24.667969 29.96875 24.554688 30.140625 24.433594 C 30.644531 24.097656 30.644531 24.097656 30.90625 24.113281 Z M 30.90625 24.113281 "></path><path style=" stroke:none;fill-rule:nonzero;fill:rgb(92.54902%,88.627451%,88.627451%);fill-opacity:1;" d="M 29.300781 30.800781 C 29.398438 30.847656 29.398438 30.847656 29.5 30.898438 C 29.285156 31.445312 28.785156 31.71875 28.3125 32.027344 C 28.171875 32.121094 28.171875 32.121094 28.03125 32.210938 C 27.929688 32.277344 27.832031 32.339844 27.730469 32.40625 C 27.628906 32.472656 27.527344 32.539062 27.421875 32.609375 C 26.746094 33.042969 26.070312 33.46875 25.382812 33.882812 C 24.410156 34.472656 23.457031 35.085938 22.5 35.699219 C 22.5 35.378906 22.527344 35.265625 22.699219 35 C 22.929688 34.828125 22.929688 34.828125 23.21875 34.65625 C 23.324219 34.59375 23.429688 34.527344 23.539062 34.460938 C 23.597656 34.429688 23.652344 34.394531 23.710938 34.359375 C 24.011719 34.183594 24.304688 34.003906 24.601562 33.824219 C 24.691406 33.769531 24.691406 33.769531 24.785156 33.714844 C 25.308594 33.398438 25.824219 33.066406 26.335938 32.730469 C 26.417969 32.679688 26.496094 32.628906 26.574219 32.574219 C 27.003906 32.292969 27.433594 32.011719 27.859375 31.726562 C 27.953125 31.664062 28.046875 31.605469 28.140625 31.542969 C 28.320312 31.425781 28.496094 31.304688 28.671875 31.1875 C 28.753906 31.136719 28.832031 31.082031 28.914062 31.027344 C 29.019531 30.957031 29.019531 30.957031 29.125 30.886719 C 29.183594 30.859375 29.242188 30.828125 29.300781 30.800781 Z M 29.300781 30.800781 "></path><path style=" stroke:none;fill-rule:nonzero;fill:rgb(96.470588%,85.882353%,85.882353%);fill-opacity:1;" d="M 28.800781 25.300781 C 28.867188 25.332031 28.933594 25.367188 29 25.398438 C 28.578125 25.988281 28.09375 26.355469 27.488281 26.738281 C 27.410156 26.785156 27.335938 26.835938 27.257812 26.882812 C 26.710938 27.234375 26.160156 27.574219 25.601562 27.898438 C 25.601562 27.601562 25.601562 27.601562 25.699219 27.300781 C 25.933594 27.136719 26.167969 26.988281 26.414062 26.84375 C 26.558594 26.753906 26.703125 26.667969 26.847656 26.578125 C 26.960938 26.511719 26.960938 26.511719 27.074219 26.441406 C 27.4375 26.214844 27.792969 25.976562 28.148438 25.738281 C 28.214844 25.695312 28.28125 25.648438 28.347656 25.605469 C 28.5 25.503906 28.648438 25.402344 28.800781 25.300781 Z M 28.800781 25.300781 "></path><path style=" stroke:none;fill-rule:nonzero;fill:rgb(95.686275%,89.411765%,89.411765%);fill-opacity:1;" d="M 26.699219 27 C 26.554688 27.394531 26.363281 27.5 25.988281 27.675781 C 25.851562 27.738281 25.851562 27.738281 25.710938 27.804688 C 25.640625 27.835938 25.570312 27.867188 25.5 27.898438 C 25.5625 27.597656 25.617188 27.371094 25.859375 27.167969 C 26.339844 26.878906 26.339844 26.878906 26.699219 27 Z M 26.699219 27 "></path><path style=" stroke:none;fill-rule:nonzero;fill:rgb(90.980392%,16.862745%,16.862745%);fill-opacity:1;" d="M 21.300781 24.601562 C 21.144531 24.980469 20.90625 25.226562 20.601562 25.5 C 20.535156 25.5 20.46875 25.5 20.398438 25.5 C 20.554688 25.121094 20.855469 24.601562 21.300781 24.601562 Z M 21.300781 24.601562 "></path><path style=" stroke:none;fill-rule:nonzero;fill:rgb(93.72549%,91.372549%,91.372549%);fill-opacity:1;" d="M 22.699219 35 C 22.90625 35.042969 22.90625 35.042969 23.101562 35.101562 C 23 35.398438 23 35.398438 22.695312 35.570312 C 22.597656 35.613281 22.5 35.65625 22.398438 35.699219 C 22.585938 35.113281 22.585938 35.113281 22.699219 35 Z M 22.699219 35 "></path><path style=" stroke:none;fill-rule:nonzero;fill:rgb(96.862745%,92.941176%,92.941176%);fill-opacity:1;" d="M 27.5 32 C 27.566406 32.03125 27.632812 32.066406 27.699219 32.101562 C 27.542969 32.417969 27.453125 32.574219 27.132812 32.730469 C 27.054688 32.753906 26.980469 32.777344 26.898438 32.800781 C 27.042969 32.464844 27.234375 32.25 27.5 32 Z M 27.5 32 "></path><path style=" stroke:none;fill-rule:nonzero;fill:rgb(97.254902%,93.333333%,93.333333%);fill-opacity:1;" d="M 25.699219 27.300781 C 25.832031 27.300781 25.964844 27.300781 26.101562 27.300781 C 26.082031 27.488281 26.082031 27.488281 26 27.699219 C 25.742188 27.824219 25.742188 27.824219 25.5 27.898438 C 25.566406 27.703125 25.632812 27.503906 25.699219 27.300781 Z M 25.699219 27.300781 "></path><path style=" stroke:none;fill-rule:nonzero;fill:rgb(91.764706%,20%,20%);fill-opacity:1;" d="M 11.398438 18.800781 C 11.464844 18.832031 11.53125 18.867188 11.601562 18.898438 C 11.488281 19.015625 11.375 19.132812 11.261719 19.25 C 11.199219 19.316406 11.136719 19.378906 11.074219 19.445312 C 10.898438 19.601562 10.898438 19.601562 10.699219 19.601562 C 10.847656 19.21875 11.074219 19.039062 11.398438 18.800781 Z M 11.398438 18.800781 "></path><path style=" stroke:none;fill-rule:nonzero;fill:rgb(97.254902%,83.529412%,83.529412%);fill-opacity:1;" d="M 27.101562 26.398438 C 27.164062 26.433594 27.230469 26.464844 27.300781 26.5 C 27.230469 26.566406 27.230469 26.566406 27.15625 26.632812 C 26.976562 26.800781 26.976562 26.800781 26.898438 27.101562 C 26.800781 27.132812 26.703125 27.164062 26.601562 27.199219 C 26.566406 27.066406 26.535156 26.9375 26.5 26.800781 C 26.699219 26.667969 26.894531 26.535156 27.101562 26.398438 Z M 27.101562 26.398438 "></path><path style=" stroke:none;fill-rule:nonzero;fill:rgb(95.294118%,95.294118%,95.294118%);fill-opacity:1;" d="M 27.300781 26.398438 C 27.367188 26.398438 27.433594 26.398438 27.5 26.398438 C 27.480469 26.585938 27.480469 26.585938 27.398438 26.800781 C 27.144531 26.925781 27.144531 26.925781 26.898438 27 C 27.015625 26.753906 27.105469 26.59375 27.300781 26.398438 Z M 27.300781 26.398438 "></path><path style=" stroke:none;fill-rule:nonzero;fill:rgb(91.764706%,85.882353%,85.882353%);fill-opacity:1;" d="M 27.898438 31.699219 C 27.964844 31.734375 28.03125 31.765625 28.101562 31.800781 C 28 31.949219 28 31.949219 27.898438 32.101562 C 27.898438 32.164062 27.898438 32.230469 27.898438 32.300781 C 27.703125 32.398438 27.703125 32.398438 27.5 32.5 C 27.53125 32.210938 27.53125 32.210938 27.601562 31.898438 C 27.699219 31.835938 27.796875 31.769531 27.898438 31.699219 Z M 27.898438 31.699219 "></path></g></svg>