<svg xmlns="http://www.w3.org/2000/svg" xmlns:xlink="http://www.w3.org/1999/xlink" width="50px" height="50px" viewBox="0 0 50 50"><g id="surface1"><path style=" stroke:none;fill-rule:nonzero;fill:rgb(99.607843%,99.607843%,99.607843%);fill-opacity:1;" d="M 40 6.199219 C 40.054688 6.242188 40.109375 6.285156 40.167969 6.332031 C 41.6875 7.535156 43.058594 8.933594 44.199219 10.5 C 44.285156 10.613281 44.367188 10.726562 44.453125 10.835938 C 46.652344 13.800781 48.070312 17.269531 48.699219 20.898438 C 48.714844 20.992188 48.734375 21.082031 48.75 21.179688 C 49.1875 23.769531 49.15625 26.511719 48.699219 29.101562 C 48.683594 29.191406 48.667969 29.285156 48.652344 29.382812 C 47.824219 33.972656 45.644531 38.296875 42.371094 41.625 C 42.203125 41.796875 42.039062 41.96875 41.871094 42.144531 C 41.183594 42.855469 40.453125 43.488281 39.660156 44.082031 C 39.519531 44.1875 39.378906 44.296875 39.238281 44.402344 C 34.351562 48.113281 27.96875 49.613281 21.917969 48.875 C 18.101562 48.347656 14.472656 47.003906 11.300781 44.800781 C 11.195312 44.726562 11.195312 44.726562 11.089844 44.652344 C 10.113281 43.96875 9.230469 43.203125 8.378906 42.375 C 8.207031 42.203125 8.03125 42.039062 7.855469 41.871094 C 7.09375 41.136719 6.433594 40.347656 5.800781 39.5 C 5.695312 39.363281 5.695312 39.363281 5.585938 39.21875 C 5.03125 38.480469 4.554688 37.703125 4.101562 36.898438 C 4.054688 36.824219 4.011719 36.746094 3.96875 36.667969 C 0.835938 31.085938 0.175781 24.433594 1.898438 18.300781 C 2.570312 15.925781 3.585938 13.625 5 11.601562 C 5.050781 11.523438 5.101562 11.449219 5.15625 11.375 C 5.90625 10.300781 6.710938 9.308594 7.628906 8.375 C 7.796875 8.203125 7.960938 8.03125 8.128906 7.855469 C 8.863281 7.09375 9.648438 6.429688 10.5 5.800781 C 10.558594 5.757812 10.613281 5.714844 10.675781 5.671875 C 18.539062 -0.191406 30.03125 -0.761719 40 6.199219 Z M 40 6.199219 "></path><path style=" stroke:none;fill-rule:nonzero;fill:rgb(10.196078%,8.627451%,25.490196%);fill-opacity:1;" d="M 22.070312 13.519531 C 22.984375 14.140625 23.582031 14.925781 23.898438 16 C 24.070312 17.257812 23.894531 18.527344 23.199219 19.601562 C 22.871094 20.027344 22.507812 20.429688 22.148438 20.832031 C 21.941406 21.066406 21.746094 21.308594 21.550781 21.550781 C 21.15625 22.035156 20.753906 22.507812 20.347656 22.976562 C 19.949219 23.441406 19.558594 23.914062 19.175781 24.390625 C 19 24.601562 19 24.601562 18.800781 24.800781 C 18.804688 25.308594 19.128906 25.589844 19.460938 25.929688 C 19.574219 26.046875 19.683594 26.164062 19.792969 26.28125 C 19.847656 26.335938 19.902344 26.390625 19.957031 26.449219 C 20.128906 26.628906 20.292969 26.816406 20.457031 27.007812 C 20.742188 27.339844 21.039062 27.664062 21.335938 27.988281 C 21.433594 28.089844 21.527344 28.195312 21.625 28.296875 C 21.796875 28.488281 21.96875 28.675781 22.140625 28.863281 C 23.40625 30.253906 24.300781 31.335938 24.234375 33.277344 C 24.167969 34.34375 23.71875 35.21875 23 36 C 22.683594 36.265625 22.355469 36.488281 22 36.699219 C 21.898438 36.761719 21.796875 36.820312 21.695312 36.882812 C 20.617188 37.316406 19.4375 37.375 18.355469 36.925781 C 17.261719 36.390625 16.472656 35.53125 15.691406 34.621094 C 15.449219 34.339844 15.199219 34.070312 14.949219 33.800781 C 14.585938 33.402344 14.226562 33.003906 13.875 32.597656 C 13.351562 32.003906 12.820312 31.421875 12.289062 30.835938 C 11.949219 30.46875 11.617188 30.09375 11.289062 29.714844 C 11.097656 29.496094 10.898438 29.285156 10.699219 29.074219 C 9.433594 27.714844 8.726562 26.609375 8.738281 24.714844 C 8.789062 23.382812 9.449219 22.570312 10.300781 21.601562 C 10.449219 21.425781 10.597656 21.253906 10.746094 21.082031 C 10.847656 20.960938 10.953125 20.839844 11.054688 20.71875 C 11.359375 20.367188 11.65625 20.011719 11.949219 19.648438 C 12.292969 19.226562 12.644531 18.8125 13 18.398438 C 13.433594 17.898438 13.855469 17.390625 14.273438 16.875 C 14.570312 16.515625 14.871094 16.15625 15.175781 15.800781 C 15.417969 15.519531 15.652344 15.234375 15.886719 14.949219 C 16.375 14.355469 16.84375 13.8125 17.5 13.398438 C 17.625 13.3125 17.625 13.3125 17.757812 13.226562 C 19.085938 12.542969 20.828125 12.785156 22.070312 13.519531 Z M 22.070312 13.519531 "></path><path style=" stroke:none;fill-rule:nonzero;fill:rgb(10.196078%,8.627451%,25.490196%);fill-opacity:1;" d="M 31.742188 13.242188 C 32.617188 13.78125 33.292969 14.484375 33.96875 15.253906 C 34.164062 15.472656 34.363281 15.691406 34.5625 15.914062 C 34.707031 16.074219 34.855469 16.238281 35 16.398438 C 35.078125 16.484375 35.152344 16.570312 35.230469 16.65625 C 35.570312 17.03125 35.90625 17.40625 36.238281 17.789062 C 36.578125 18.179688 36.929688 18.5625 37.28125 18.941406 C 37.652344 19.34375 38.015625 19.75 38.382812 20.15625 C 38.527344 20.320312 38.675781 20.484375 38.824219 20.644531 C 40.246094 22.207031 41.097656 23.355469 41.046875 25.511719 C 40.964844 26.796875 40.070312 27.730469 39.242188 28.640625 C 39.039062 28.871094 38.84375 29.109375 38.648438 29.351562 C 38.257812 29.835938 37.851562 30.308594 37.445312 30.78125 C 37.140625 31.132812 36.84375 31.488281 36.550781 31.851562 C 36.207031 32.273438 35.855469 32.6875 35.5 33.101562 C 34.910156 33.785156 34.328125 34.476562 33.773438 35.191406 C 32.988281 36.183594 32.128906 36.851562 30.898438 37.199219 C 29.554688 37.316406 28.496094 37.089844 27.398438 36.300781 C 26.605469 35.628906 25.980469 34.746094 25.878906 33.6875 C 25.867188 33.453125 25.863281 33.21875 25.863281 32.980469 C 25.863281 32.90625 25.863281 32.832031 25.863281 32.753906 C 25.886719 31.582031 26.289062 30.683594 27.070312 29.820312 C 27.175781 29.695312 27.285156 29.574219 27.390625 29.453125 C 27.445312 29.390625 27.496094 29.332031 27.550781 29.269531 C 27.761719 29.03125 27.960938 28.785156 28.164062 28.539062 C 28.472656 28.15625 28.785156 27.777344 29.101562 27.398438 C 29.503906 26.917969 29.90625 26.429688 30.300781 25.941406 C 30.464844 25.742188 30.636719 25.546875 30.8125 25.355469 C 31.023438 25.125 31.023438 25.125 30.980469 24.90625 C 30.882812 24.65625 30.757812 24.515625 30.570312 24.324219 C 30.503906 24.253906 30.4375 24.183594 30.367188 24.109375 C 30.296875 24.039062 30.222656 23.964844 30.148438 23.886719 C 30.003906 23.734375 29.855469 23.582031 29.710938 23.429688 C 29.601562 23.316406 29.601562 23.316406 29.496094 23.203125 C 28.9375 22.621094 28.410156 22.011719 27.882812 21.40625 C 27.75 21.257812 27.617188 21.113281 27.484375 20.96875 C 26.195312 19.566406 25.496094 18.496094 25.5625 16.574219 C 25.597656 16.019531 25.714844 15.578125 26 15.101562 C 26.066406 14.984375 26.066406 14.984375 26.132812 14.867188 C 26.667969 13.988281 27.4375 13.328125 28.410156 12.992188 C 29.480469 12.738281 30.75 12.742188 31.742188 13.242188 Z M 31.742188 13.242188 "></path><path style=" stroke:none;fill-rule:nonzero;fill:rgb(98.823529%,13.333333%,30.980392%);fill-opacity:1;" d="M 35.101562 19.300781 C 35.40625 19.535156 35.675781 19.769531 35.925781 20.0625 C 36.191406 20.371094 36.457031 20.679688 36.730469 20.980469 C 36.808594 21.066406 36.882812 21.148438 36.960938 21.234375 C 37.125 21.414062 37.289062 21.59375 37.453125 21.773438 C 39.382812 23.871094 39.382812 23.871094 39.339844 25.117188 C 39.203125 26.078125 38.511719 26.792969 37.898438 27.5 C 37.703125 27.726562 37.507812 27.953125 37.3125 28.179688 C 37.261719 28.238281 37.210938 28.296875 37.160156 28.359375 C 36.804688 28.773438 36.464844 29.195312 36.132812 29.625 C 35.746094 30.121094 35.34375 30.59375 34.917969 31.058594 C 34.613281 31.394531 34.332031 31.75 34.046875 32.101562 C 33.71875 32.5 33.382812 32.890625 33.042969 33.277344 C 32.726562 33.644531 32.429688 34.019531 32.136719 34.40625 C 31.640625 35.011719 31.160156 35.332031 30.378906 35.445312 C 29.636719 35.480469 29.085938 35.367188 28.5 34.898438 C 27.894531 34.339844 27.589844 33.738281 27.554688 32.90625 C 27.539062 32.019531 28.054688 31.386719 28.601562 30.738281 C 28.65625 30.667969 28.714844 30.601562 28.773438 30.527344 C 29.199219 30.011719 29.636719 29.503906 30.074219 28.992188 C 30.449219 28.5625 30.8125 28.121094 31.171875 27.679688 C 31.429688 27.367188 31.6875 27.058594 31.949219 26.75 C 32.441406 26.171875 32.929688 25.59375 33.398438 25 C 33.503906 24.871094 33.503906 24.871094 33.613281 24.734375 C 34.632812 23.414062 35.011719 22.035156 35.0625 20.394531 C 35.066406 20.289062 35.070312 20.183594 35.074219 20.074219 C 35.082031 19.816406 35.09375 19.558594 35.101562 19.300781 Z M 35.101562 19.300781 "></path><path style=" stroke:none;fill-rule:nonzero;fill:rgb(98.823529%,13.333333%,30.980392%);fill-opacity:1;" d="M 21.386719 15.1875 C 21.933594 15.730469 22.199219 16.3125 22.242188 17.074219 C 22.210938 18.1875 21.433594 18.953125 20.738281 19.742188 C 20.535156 19.972656 20.34375 20.210938 20.148438 20.449219 C 19.832031 20.839844 19.507812 21.226562 19.179688 21.613281 C 18.691406 22.191406 18.207031 22.773438 17.726562 23.363281 C 17.449219 23.703125 17.167969 24.042969 16.871094 24.371094 C 15.46875 25.941406 14.675781 27.59375 14.695312 29.738281 C 14.695312 29.832031 14.695312 29.921875 14.695312 30.019531 C 14.695312 30.246094 14.699219 30.472656 14.699219 30.699219 C 14.292969 30.363281 13.910156 30.023438 13.5625 29.625 C 13.488281 29.539062 13.410156 29.453125 13.332031 29.363281 C 13.21875 29.234375 13.21875 29.234375 13.101562 29.101562 C 12.949219 28.933594 12.800781 28.765625 12.648438 28.601562 C 12.574219 28.519531 12.503906 28.433594 12.425781 28.351562 C 12.273438 28.179688 12.121094 28.011719 11.964844 27.847656 C 11.488281 27.328125 11.058594 26.808594 10.699219 26.199219 C 10.664062 26.140625 10.625 26.078125 10.585938 26.015625 C 10.359375 25.449219 10.394531 24.707031 10.59375 24.136719 C 11.003906 23.410156 11.605469 22.789062 12.15625 22.167969 C 12.359375 21.933594 12.554688 21.691406 12.75 21.449219 C 13.238281 20.847656 13.742188 20.265625 14.25 19.675781 C 14.804688 19.027344 15.363281 18.378906 15.894531 17.707031 C 16.363281 17.113281 16.855469 16.542969 17.351562 15.972656 C 17.457031 15.851562 17.558594 15.730469 17.65625 15.609375 C 17.710938 15.546875 17.761719 15.484375 17.8125 15.421875 C 17.859375 15.367188 17.90625 15.308594 17.953125 15.253906 C 18.921875 14.242188 20.328125 14.496094 21.386719 15.1875 Z M 21.386719 15.1875 "></path><path style=" stroke:none;fill-rule:nonzero;fill:rgb(98.431373%,13.333333%,30.980392%);fill-opacity:1;" d="M 30.832031 14.761719 C 30.957031 14.835938 31.078125 14.917969 31.199219 15 C 31.289062 15.058594 31.289062 15.058594 31.375 15.113281 C 32.480469 15.9375 33.074219 17.476562 33.300781 18.800781 C 33.328125 19.105469 33.332031 19.410156 33.332031 19.71875 C 33.332031 19.84375 33.332031 19.84375 33.328125 19.96875 C 33.304688 21.238281 32.964844 22.367188 32.398438 23.5 C 32.097656 23.367188 31.902344 23.222656 31.679688 22.980469 C 31.621094 22.917969 31.5625 22.855469 31.503906 22.789062 C 31.441406 22.722656 31.382812 22.65625 31.320312 22.585938 C 31.253906 22.519531 31.191406 22.449219 31.128906 22.378906 C 30.773438 21.992188 30.421875 21.601562 30.078125 21.203125 C 29.839844 20.929688 29.59375 20.664062 29.351562 20.398438 C 29.167969 20.199219 28.984375 20 28.800781 19.800781 C 28.699219 19.691406 28.699219 19.691406 28.59375 19.578125 C 27.859375 18.761719 27.246094 17.964844 27.273438 16.824219 C 27.339844 16.25 27.644531 15.738281 28 15.300781 C 28.828125 14.65625 29.808594 14.28125 30.832031 14.761719 Z M 30.832031 14.761719 "></path><path style=" stroke:none;fill-rule:nonzero;fill:rgb(98.431373%,13.333333%,30.980392%);fill-opacity:1;" d="M 17.398438 26.5 C 17.789062 26.65625 18.007812 26.902344 18.28125 27.210938 C 18.324219 27.261719 18.371094 27.3125 18.414062 27.363281 C 18.542969 27.507812 18.671875 27.652344 18.800781 27.800781 C 18.863281 27.871094 18.925781 27.941406 18.988281 28.015625 C 19.101562 28.144531 19.210938 28.269531 19.324219 28.398438 C 19.773438 28.914062 20.230469 29.421875 20.699219 29.917969 C 22.457031 31.78125 22.457031 31.78125 22.425781 33.222656 C 22.375 33.933594 22.125 34.304688 21.613281 34.78125 C 20.859375 35.382812 20.261719 35.503906 19.300781 35.398438 C 18.398438 35.152344 17.796875 34.382812 17.347656 33.601562 C 16.460938 31.796875 16.117188 29.742188 16.777344 27.796875 C 16.960938 27.351562 17.164062 26.921875 17.398438 26.5 Z M 17.398438 26.5 "></path></g></svg>