<svg xmlns="http://www.w3.org/2000/svg" xmlns:xlink="http://www.w3.org/1999/xlink" width="50px" height="50px" viewBox="0 0 50 50"><g id="surface1"><path style=" stroke:none;fill-rule:nonzero;fill:rgb(99.607843%,99.607843%,99.607843%);fill-opacity:1;" d="M 40 6.199219 C 40.054688 6.242188 40.109375 6.285156 40.167969 6.332031 C 41.6875 7.535156 43.058594 8.933594 44.199219 10.5 C 44.285156 10.613281 44.367188 10.726562 44.453125 10.835938 C 46.652344 13.800781 48.070312 17.269531 48.699219 20.898438 C 48.714844 20.992188 48.734375 21.082031 48.75 21.179688 C 49.1875 23.769531 49.15625 26.511719 48.699219 29.101562 C 48.683594 29.191406 48.667969 29.285156 48.652344 29.382812 C 47.824219 33.972656 45.644531 38.296875 42.371094 41.625 C 42.203125 41.796875 42.039062 41.96875 41.871094 42.144531 C 41.183594 42.855469 40.453125 43.488281 39.660156 44.082031 C 39.519531 44.1875 39.378906 44.296875 39.238281 44.402344 C 34.351562 48.113281 27.96875 49.613281 21.917969 48.875 C 18.101562 48.347656 14.472656 47.003906 11.300781 44.800781 C 11.195312 44.726562 11.195312 44.726562 11.089844 44.652344 C 10.113281 43.96875 9.230469 43.203125 8.378906 42.375 C 8.207031 42.203125 8.03125 42.039062 7.855469 41.871094 C 7.09375 41.136719 6.433594 40.347656 5.800781 39.5 C 5.695312 39.363281 5.695312 39.363281 5.585938 39.21875 C 5.03125 38.480469 4.554688 37.703125 4.101562 36.898438 C 4.054688 36.824219 4.011719 36.746094 3.96875 36.667969 C 0.835938 31.085938 0.175781 24.433594 1.898438 18.300781 C 2.570312 15.925781 3.585938 13.625 5 11.601562 C 5.050781 11.523438 5.101562 11.449219 5.15625 11.375 C 5.90625 10.300781 6.710938 9.308594 7.628906 8.375 C 7.796875 8.203125 7.960938 8.03125 8.128906 7.855469 C 8.863281 7.09375 9.648438 6.429688 10.5 5.800781 C 10.558594 5.757812 10.613281 5.714844 10.675781 5.671875 C 18.539062 -0.191406 30.03125 -0.761719 40 6.199219 Z M 40 6.199219 "></path><path style=" stroke:none;fill-rule:nonzero;fill:rgb(56.470588%,35.294118%,98.431373%);fill-opacity:1;" d="M 35.898438 12.800781 C 37.320312 12.800781 38.738281 12.800781 40.199219 12.800781 C 40.257812 13.785156 40.316406 14.753906 40.316406 15.738281 C 40.316406 15.851562 40.316406 15.964844 40.316406 16.078125 C 40.316406 16.441406 40.316406 16.804688 40.316406 17.167969 C 40.316406 17.421875 40.316406 17.679688 40.316406 17.9375 C 40.320312 18.472656 40.320312 19.007812 40.320312 19.542969 C 40.320312 20.15625 40.320312 20.769531 40.320312 21.382812 C 40.324219 21.976562 40.324219 22.574219 40.324219 23.171875 C 40.324219 23.421875 40.324219 23.671875 40.324219 23.921875 C 40.328125 25.996094 40.277344 28.054688 39.8125 30.082031 C 39.789062 30.195312 39.765625 30.3125 39.738281 30.429688 C 39.585938 31.117188 39.386719 31.757812 39.101562 32.398438 C 39.035156 32.398438 38.96875 32.398438 38.898438 32.398438 C 38.890625 32.472656 38.882812 32.546875 38.875 32.625 C 38.785156 32.953125 38.644531 33.070312 38.398438 33.300781 C 38.367188 33.398438 38.335938 33.496094 38.300781 33.601562 C 38.234375 33.601562 38.167969 33.601562 38.101562 33.601562 C 38.058594 33.6875 38.058594 33.6875 38.015625 33.773438 C 37.902344 33.996094 37.785156 34.207031 37.65625 34.417969 C 37.613281 34.488281 37.574219 34.558594 37.53125 34.628906 C 37.398438 34.800781 37.398438 34.800781 37.101562 34.898438 C 37.101562 34.964844 37.101562 35.03125 37.101562 35.101562 C 37.035156 35.101562 36.96875 35.101562 36.898438 35.101562 C 36.898438 35.164062 36.898438 35.230469 36.898438 35.300781 C 35.710938 36.339844 34.164062 37.21875 32.558594 37.210938 C 32.445312 37.210938 32.445312 37.210938 32.328125 37.210938 C 32.078125 37.210938 31.828125 37.210938 31.574219 37.210938 C 31.394531 37.210938 31.214844 37.210938 31.035156 37.210938 C 30.542969 37.210938 30.054688 37.210938 29.5625 37.210938 C 29.050781 37.210938 28.539062 37.210938 28.027344 37.210938 C 27.058594 37.210938 26.089844 37.207031 25.121094 37.207031 C 24.015625 37.207031 22.914062 37.207031 21.808594 37.203125 C 19.539062 37.203125 17.269531 37.203125 15 37.199219 C 14.996094 35.835938 14.996094 34.46875 14.996094 33.101562 C 14.996094 32.46875 14.992188 31.835938 14.992188 31.203125 C 14.992188 30.589844 14.992188 29.976562 14.992188 29.367188 C 14.992188 29.132812 14.988281 28.898438 14.988281 28.664062 C 14.988281 28.339844 14.988281 28.011719 14.988281 27.6875 C 14.988281 27.539062 14.988281 27.539062 14.988281 27.390625 C 14.988281 27.300781 14.988281 27.214844 14.988281 27.121094 C 14.988281 27.046875 14.988281 26.96875 14.988281 26.886719 C 15 26.699219 15 26.699219 15.101562 26.5 C 15.566406 26.496094 16.03125 26.496094 16.5 26.496094 C 16.65625 26.492188 16.816406 26.492188 16.976562 26.492188 C 17.203125 26.492188 17.429688 26.492188 17.660156 26.492188 C 17.765625 26.488281 17.765625 26.488281 17.875 26.488281 C 18.378906 26.488281 18.378906 26.488281 18.601562 26.601562 C 18.601562 26.65625 18.601562 26.710938 18.601562 26.769531 C 18.609375 27.355469 18.621094 27.941406 18.632812 28.527344 C 18.636719 28.746094 18.640625 28.964844 18.640625 29.183594 C 18.648438 29.496094 18.652344 29.8125 18.660156 30.125 C 18.660156 30.222656 18.660156 30.320312 18.660156 30.417969 C 18.671875 30.949219 18.714844 31.402344 18.898438 31.898438 C 19.089844 32.066406 19.089844 32.066406 19.300781 32.199219 C 19.351562 32.285156 19.402344 32.375 19.457031 32.460938 C 19.582031 32.730469 19.582031 32.730469 19.898438 32.800781 C 19.964844 32.898438 20.03125 32.996094 20.101562 33.101562 C 21.132812 33.589844 22.289062 33.515625 23.410156 33.515625 C 23.542969 33.515625 23.679688 33.515625 23.8125 33.519531 C 24.089844 33.519531 24.371094 33.519531 24.648438 33.519531 C 25.003906 33.519531 25.355469 33.519531 25.707031 33.523438 C 25.984375 33.523438 26.261719 33.523438 26.535156 33.523438 C 26.730469 33.523438 26.921875 33.523438 27.113281 33.523438 C 27.878906 33.523438 28.613281 33.460938 29.371094 33.34375 C 29.785156 33.289062 30.179688 33.285156 30.601562 33.300781 C 30.632812 33.199219 30.664062 33.101562 30.699219 33 C 30.777344 32.988281 30.855469 32.980469 30.933594 32.96875 C 32.054688 32.808594 32.902344 32.402344 33.699219 31.601562 C 33.808594 31.511719 33.917969 31.425781 34.023438 31.335938 C 34.996094 30.503906 35.339844 29.625 35.558594 28.398438 C 35.601562 28.199219 35.601562 28.199219 35.699219 28.101562 C 35.710938 27.902344 35.71875 27.703125 35.71875 27.507812 C 35.722656 27.378906 35.722656 27.25 35.726562 27.117188 C 35.726562 26.972656 35.726562 26.828125 35.730469 26.683594 C 35.730469 26.535156 35.734375 26.382812 35.734375 26.230469 C 35.742188 25.820312 35.746094 25.410156 35.75 25 C 35.753906 24.570312 35.761719 24.144531 35.765625 23.714844 C 35.777344 22.902344 35.785156 22.089844 35.796875 21.277344 C 35.808594 20.355469 35.820312 19.429688 35.832031 18.503906 C 35.855469 16.605469 35.878906 14.703125 35.898438 12.800781 Z M 35.898438 12.800781 "></path><path style=" stroke:none;fill-rule:nonzero;fill:rgb(66.666667%,67.058824%,68.627451%);fill-opacity:1;" d="M 19.285156 12.777344 C 19.457031 12.777344 19.632812 12.777344 19.808594 12.777344 C 20.277344 12.777344 20.746094 12.777344 21.214844 12.78125 C 21.707031 12.78125 22.199219 12.78125 22.691406 12.78125 C 23.625 12.78125 24.554688 12.785156 25.484375 12.785156 C 26.542969 12.789062 27.605469 12.789062 28.664062 12.789062 C 30.84375 12.792969 33.019531 12.796875 35.199219 12.800781 C 35.203125 13.296875 35.203125 13.792969 35.207031 14.289062 C 35.207031 14.457031 35.207031 14.628906 35.207031 14.796875 C 35.207031 15.039062 35.210938 15.28125 35.210938 15.523438 C 35.210938 15.601562 35.210938 15.675781 35.210938 15.753906 C 35.210938 15.9375 35.207031 16.117188 35.199219 16.300781 C 35.035156 16.464844 34.839844 16.414062 34.613281 16.414062 C 34.507812 16.414062 34.402344 16.414062 34.292969 16.417969 C 34.117188 16.417969 34.117188 16.417969 33.9375 16.417969 C 33.753906 16.417969 33.753906 16.417969 33.566406 16.417969 C 33.300781 16.421875 33.03125 16.421875 32.765625 16.421875 C 32.339844 16.425781 31.914062 16.425781 31.488281 16.429688 C 30.28125 16.4375 29.074219 16.441406 27.863281 16.449219 C 27.199219 16.449219 26.53125 16.453125 25.863281 16.457031 C 25.511719 16.460938 25.160156 16.460938 24.808594 16.464844 C 23.539062 16.46875 22.273438 16.472656 21.011719 16.582031 C 20.929688 16.589844 20.847656 16.597656 20.761719 16.605469 C 20.230469 16.660156 19.796875 16.800781 19.300781 17 C 19.097656 17.039062 18.898438 17.074219 18.695312 17.101562 C 17.910156 17.222656 17.34375 17.515625 16.703125 17.96875 C 16.5 18.101562 16.5 18.101562 16.199219 18.199219 C 16.171875 18.257812 16.140625 18.316406 16.113281 18.375 C 16 18.601562 16 18.601562 15.761719 18.804688 C 15.445312 19.160156 15.339844 19.488281 15.191406 19.933594 C 15.085938 20.238281 14.941406 20.511719 14.800781 20.800781 C 14.484375 21.75 14.367188 22.746094 14.289062 23.738281 C 14.28125 23.84375 14.273438 23.953125 14.265625 24.0625 C 14.171875 25.371094 14.164062 26.679688 14.160156 27.992188 C 14.15625 28.257812 14.15625 28.527344 14.152344 28.792969 C 14.148438 29.417969 14.144531 30.042969 14.140625 30.667969 C 14.136719 31.382812 14.132812 32.097656 14.128906 32.808594 C 14.117188 34.273438 14.109375 35.738281 14.101562 37.199219 C 12.714844 37.199219 11.328125 37.199219 9.898438 37.199219 C 9.894531 35.335938 9.886719 33.46875 9.882812 31.601562 C 9.882812 30.738281 9.878906 29.871094 9.878906 29.003906 C 9.875 28.246094 9.871094 27.492188 9.871094 26.734375 C 9.871094 26.335938 9.871094 25.9375 9.867188 25.535156 C 9.84375 21.109375 9.84375 21.109375 10.300781 20.199219 C 10.328125 20.011719 10.355469 19.824219 10.382812 19.636719 C 10.496094 18.84375 10.695312 18.074219 10.898438 17.300781 C 10.964844 17.300781 11.03125 17.300781 11.101562 17.300781 C 11.101562 17.167969 11.101562 17.035156 11.101562 16.898438 C 11.164062 16.898438 11.230469 16.898438 11.300781 16.898438 C 11.324219 16.816406 11.34375 16.730469 11.367188 16.644531 C 11.519531 16.25 11.710938 15.910156 12 15.601562 C 12.066406 15.601562 12.132812 15.601562 12.199219 15.601562 C 12.199219 15.535156 12.199219 15.46875 12.199219 15.398438 C 12.449219 15.25 12.449219 15.25 12.699219 15.101562 C 13.082031 14.753906 13.082031 14.753906 13.300781 14.300781 C 13.871094 13.851562 14.523438 13.601562 15.214844 13.394531 C 15.503906 13.308594 15.503906 13.308594 15.777344 13.152344 C 16.824219 12.660156 18.152344 12.773438 19.285156 12.777344 Z M 19.285156 12.777344 "></path><path style=" stroke:none;fill-rule:nonzero;fill:rgb(12.941176%,11.764706%,12.156863%);fill-opacity:1;" d="M 25.28125 17.0625 C 25.539062 17.0625 25.796875 17.0625 26.058594 17.0625 C 26.59375 17.0625 27.128906 17.066406 27.667969 17.066406 C 28.285156 17.070312 28.902344 17.070312 29.519531 17.066406 C 30.121094 17.066406 30.722656 17.066406 31.324219 17.070312 C 31.574219 17.070312 31.828125 17.070312 32.082031 17.070312 C 32.433594 17.070312 32.789062 17.070312 33.140625 17.074219 C 33.246094 17.074219 33.347656 17.070312 33.453125 17.070312 C 34.089844 17.078125 34.679688 17.152344 35.300781 17.300781 C 35.40625 18.007812 35.425781 18.703125 35.429688 19.417969 C 35.433594 19.535156 35.4375 19.652344 35.441406 19.769531 C 35.441406 19.882812 35.441406 19.996094 35.441406 20.109375 C 35.445312 20.261719 35.445312 20.261719 35.445312 20.417969 C 35.382812 20.808594 35.304688 20.9375 35 21.199219 C 34.597656 21.277344 34.199219 21.265625 33.792969 21.257812 C 33.667969 21.261719 33.546875 21.261719 33.417969 21.261719 C 33.148438 21.261719 32.878906 21.261719 32.613281 21.257812 C 32.183594 21.257812 31.757812 21.257812 31.332031 21.257812 C 30.503906 21.261719 29.671875 21.257812 28.84375 21.257812 C 27.789062 21.253906 26.738281 21.253906 25.6875 21.253906 C 25.261719 21.257812 24.839844 21.253906 24.417969 21.253906 C 24.089844 21.25 23.765625 21.253906 23.4375 21.253906 C 23.320312 21.253906 23.207031 21.25 23.089844 21.25 C 22.179688 21.253906 21.074219 21.355469 20.335938 21.945312 C 19.839844 22.480469 19.457031 23.007812 19.199219 23.699219 C 19.132812 23.699219 19.066406 23.699219 19 23.699219 C 18.996094 23.757812 18.992188 23.816406 18.988281 23.875 C 18.9375 24.476562 18.84375 24.957031 18.398438 25.398438 C 17.878906 25.585938 17.285156 25.519531 16.742188 25.519531 C 16.539062 25.519531 16.332031 25.519531 16.128906 25.523438 C 15.9375 25.523438 15.9375 25.523438 15.738281 25.523438 C 15.5625 25.523438 15.5625 25.523438 15.382812 25.523438 C 15.101562 25.5 15.101562 25.5 14.898438 25.300781 C 14.886719 25.085938 14.886719 25.085938 14.902344 24.820312 C 14.90625 24.726562 14.914062 24.632812 14.917969 24.535156 C 14.925781 24.386719 14.925781 24.386719 14.9375 24.238281 C 14.941406 24.136719 14.949219 24.039062 14.953125 23.9375 C 14.96875 23.691406 14.984375 23.445312 15 23.199219 C 15.066406 23.199219 15.132812 23.199219 15.199219 23.199219 C 15.199219 23.140625 15.195312 23.085938 15.191406 23.023438 C 15.179688 22.535156 15.226562 22.164062 15.398438 21.699219 C 15.4375 21.5 15.472656 21.300781 15.5 21.101562 C 15.566406 21.101562 15.632812 21.101562 15.699219 21.101562 C 15.734375 20.96875 15.765625 20.835938 15.800781 20.699219 C 15.867188 20.699219 15.933594 20.699219 16 20.699219 C 16.019531 20.632812 16.042969 20.566406 16.0625 20.5 C 16.414062 19.730469 17.015625 19.089844 17.699219 18.601562 C 17.800781 18.601562 17.898438 18.601562 18 18.601562 C 18.023438 18.539062 18.046875 18.476562 18.074219 18.410156 C 18.269531 18.085938 18.523438 18.058594 18.875 17.953125 C 19.121094 17.894531 19.34375 17.875 19.601562 17.898438 C 19.601562 17.835938 19.601562 17.769531 19.601562 17.699219 C 20.054688 17.324219 20.59375 17.300781 21.15625 17.234375 C 21.261719 17.222656 21.367188 17.207031 21.476562 17.195312 C 22.742188 17.054688 24.007812 17.058594 25.28125 17.0625 Z M 25.28125 17.0625 "></path><path style=" stroke:none;fill-rule:nonzero;fill:rgb(65.490196%,53.72549%,86.666667%);fill-opacity:1;" d="M 35.898438 12.800781 C 35.933594 12.800781 35.964844 12.800781 36 12.800781 C 36.003906 14.859375 36.003906 16.917969 36.003906 18.976562 C 36.003906 19.929688 36.007812 20.886719 36.007812 21.84375 C 36.007812 22.675781 36.007812 23.507812 36.007812 24.339844 C 36.007812 24.78125 36.011719 25.222656 36.011719 25.664062 C 36.011719 26.078125 36.011719 26.492188 36.011719 26.90625 C 36.011719 27.058594 36.011719 27.210938 36.011719 27.367188 C 36.011719 27.574219 36.011719 27.78125 36.011719 27.988281 C 36.011719 28.164062 36.011719 28.164062 36.011719 28.339844 C 36 28.601562 36 28.601562 35.898438 28.699219 C 35.859375 28.882812 35.824219 29.070312 35.792969 29.257812 C 35.777344 29.359375 35.757812 29.457031 35.742188 29.5625 C 35.726562 29.640625 35.714844 29.71875 35.699219 29.800781 C 35.632812 29.800781 35.566406 29.800781 35.5 29.800781 C 35.480469 29.863281 35.460938 29.925781 35.441406 29.988281 C 35.414062 30.070312 35.390625 30.152344 35.363281 30.238281 C 35.335938 30.320312 35.3125 30.398438 35.285156 30.484375 C 35.199219 30.699219 35.199219 30.699219 35 30.898438 C 34.9375 31.105469 34.9375 31.105469 34.898438 31.300781 C 34.835938 31.300781 34.769531 31.300781 34.699219 31.300781 C 34.671875 31.378906 34.644531 31.460938 34.617188 31.542969 C 34.578125 31.628906 34.539062 31.710938 34.5 31.800781 C 34.402344 31.832031 34.300781 31.867188 34.199219 31.898438 C 34.199219 31.964844 34.199219 32.03125 34.199219 32.101562 C 33.550781 32.398438 33.550781 32.398438 33.101562 32.398438 C 33.074219 32.460938 33.046875 32.519531 33.019531 32.582031 C 32.820312 32.945312 32.691406 33.070312 32.289062 33.199219 C 32.195312 33.222656 32.195312 33.222656 32.101562 33.246094 C 31.886719 33.304688 31.6875 33.375 31.480469 33.449219 C 30.351562 33.824219 29.210938 33.828125 28.03125 33.824219 C 27.863281 33.824219 27.695312 33.824219 27.523438 33.824219 C 27.171875 33.824219 26.816406 33.820312 26.464844 33.820312 C 26.015625 33.820312 25.570312 33.820312 25.121094 33.820312 C 24.769531 33.820312 24.421875 33.816406 24.070312 33.816406 C 23.90625 33.816406 23.742188 33.816406 23.578125 33.816406 C 22.757812 33.816406 21.941406 33.804688 21.121094 33.761719 C 20.996094 33.757812 20.871094 33.75 20.742188 33.742188 C 20.246094 33.679688 19.785156 33.527344 19.398438 33.199219 C 19.273438 32.933594 19.273438 32.933594 19.199219 32.699219 C 19.132812 32.699219 19.066406 32.699219 19 32.699219 C 18.875 32.402344 18.769531 32.113281 18.699219 31.800781 C 19.128906 32.058594 19.355469 32.265625 19.601562 32.699219 C 19.699219 32.734375 19.796875 32.765625 19.898438 32.800781 C 19.964844 32.898438 20.03125 32.996094 20.101562 33.101562 C 21.132812 33.589844 22.289062 33.515625 23.410156 33.515625 C 23.542969 33.515625 23.679688 33.515625 23.8125 33.519531 C 24.089844 33.519531 24.371094 33.519531 24.648438 33.519531 C 25.003906 33.519531 25.355469 33.519531 25.707031 33.523438 C 25.984375 33.523438 26.261719 33.523438 26.535156 33.523438 C 26.730469 33.523438 26.921875 33.523438 27.113281 33.523438 C 27.878906 33.523438 28.613281 33.460938 29.371094 33.34375 C 29.785156 33.289062 30.179688 33.285156 30.601562 33.300781 C 30.632812 33.199219 30.664062 33.101562 30.699219 33 C 30.777344 32.988281 30.855469 32.980469 30.933594 32.96875 C 32.054688 32.808594 32.902344 32.402344 33.699219 31.601562 C 33.808594 31.511719 33.917969 31.425781 34.023438 31.335938 C 34.996094 30.503906 35.339844 29.625 35.558594 28.398438 C 35.601562 28.199219 35.601562 28.199219 35.699219 28.101562 C 35.710938 27.902344 35.71875 27.703125 35.71875 27.507812 C 35.722656 27.378906 35.722656 27.25 35.726562 27.117188 C 35.726562 26.972656 35.726562 26.828125 35.730469 26.683594 C 35.730469 26.535156 35.734375 26.382812 35.734375 26.230469 C 35.742188 25.820312 35.746094 25.410156 35.75 25 C 35.753906 24.570312 35.761719 24.144531 35.765625 23.714844 C 35.777344 22.902344 35.785156 22.089844 35.796875 21.277344 C 35.808594 20.355469 35.820312 19.429688 35.832031 18.503906 C 35.855469 16.605469 35.878906 14.703125 35.898438 12.800781 Z M 35.898438 12.800781 "></path><path style=" stroke:none;fill-rule:nonzero;fill:rgb(32.54902%,32.156863%,32.54902%);fill-opacity:1;" d="M 25.28125 17.0625 C 25.539062 17.0625 25.796875 17.0625 26.058594 17.0625 C 26.59375 17.0625 27.128906 17.066406 27.667969 17.066406 C 28.285156 17.070312 28.902344 17.070312 29.519531 17.066406 C 30.121094 17.066406 30.722656 17.066406 31.324219 17.070312 C 31.574219 17.070312 31.828125 17.070312 32.082031 17.070312 C 32.433594 17.070312 32.789062 17.070312 33.140625 17.074219 C 33.246094 17.074219 33.347656 17.070312 33.453125 17.070312 C 34.089844 17.078125 34.679688 17.152344 35.300781 17.300781 C 35.40625 18.007812 35.425781 18.703125 35.429688 19.417969 C 35.433594 19.535156 35.4375 19.652344 35.441406 19.769531 C 35.441406 19.882812 35.441406 19.996094 35.441406 20.109375 C 35.445312 20.261719 35.445312 20.261719 35.445312 20.417969 C 35.382812 20.8125 35.308594 20.9375 35 21.199219 C 34.578125 21.277344 34.160156 21.269531 33.734375 21.265625 C 33.539062 21.265625 33.539062 21.265625 33.339844 21.269531 C 32.984375 21.273438 32.628906 21.273438 32.273438 21.269531 C 31.902344 21.269531 31.53125 21.273438 31.160156 21.273438 C 30.453125 21.277344 29.75 21.28125 29.046875 21.28125 C 28.246094 21.28125 27.445312 21.285156 26.644531 21.289062 C 24.996094 21.296875 23.347656 21.296875 21.699219 21.300781 C 22.183594 20.816406 23.273438 20.984375 23.921875 20.980469 C 24.039062 20.976562 24.160156 20.976562 24.285156 20.976562 C 24.609375 20.972656 24.9375 20.972656 25.265625 20.96875 C 25.609375 20.96875 25.949219 20.964844 26.292969 20.960938 C 26.941406 20.957031 27.589844 20.953125 28.234375 20.949219 C 28.972656 20.941406 29.710938 20.9375 30.449219 20.933594 C 31.964844 20.921875 33.484375 20.910156 35 20.898438 C 35.003906 20.460938 35.007812 20.023438 35.011719 19.585938 C 35.011719 19.4375 35.011719 19.289062 35.015625 19.140625 C 35.015625 18.925781 35.019531 18.710938 35.019531 18.496094 C 35.019531 18.304688 35.019531 18.304688 35.023438 18.105469 C 35.03125 17.789062 35.03125 17.789062 34.800781 17.601562 C 34.589844 17.5625 34.589844 17.5625 34.34375 17.558594 C 34.25 17.554688 34.15625 17.550781 34.058594 17.546875 C 33.957031 17.542969 33.851562 17.542969 33.746094 17.539062 C 33.640625 17.535156 33.53125 17.53125 33.421875 17.527344 C 32.234375 17.488281 31.046875 17.484375 29.859375 17.488281 C 29.625 17.488281 29.390625 17.488281 29.15625 17.488281 C 28.667969 17.484375 28.179688 17.488281 27.691406 17.488281 C 27.070312 17.488281 26.453125 17.488281 25.832031 17.488281 C 25.347656 17.484375 24.863281 17.488281 24.382812 17.488281 C 24.152344 17.488281 23.925781 17.488281 23.695312 17.488281 C 22.460938 17.484375 21.234375 17.5 20 17.601562 C 20.03125 17.535156 20.066406 17.46875 20.101562 17.398438 C 20.4375 17.3125 20.785156 17.28125 21.132812 17.238281 C 21.238281 17.226562 21.347656 17.214844 21.457031 17.199219 C 22.730469 17.058594 24 17.058594 25.28125 17.0625 Z M 25.28125 17.0625 "></path><path style=" stroke:none;fill-rule:nonzero;fill:rgb(76.862745%,77.254902%,77.647059%);fill-opacity:1;" d="M 35 12.800781 C 35.066406 12.800781 35.132812 12.800781 35.199219 12.800781 C 35.203125 13.296875 35.203125 13.792969 35.207031 14.289062 C 35.207031 14.457031 35.207031 14.628906 35.207031 14.796875 C 35.207031 15.039062 35.210938 15.28125 35.210938 15.523438 C 35.210938 15.601562 35.210938 15.675781 35.210938 15.753906 C 35.210938 15.9375 35.207031 16.117188 35.199219 16.300781 C 35.035156 16.464844 34.839844 16.414062 34.613281 16.414062 C 34.507812 16.414062 34.402344 16.414062 34.292969 16.417969 C 34.117188 16.417969 34.117188 16.417969 33.9375 16.417969 C 33.753906 16.417969 33.753906 16.417969 33.566406 16.417969 C 33.300781 16.421875 33.03125 16.421875 32.765625 16.421875 C 32.339844 16.425781 31.914062 16.425781 31.488281 16.429688 C 30.28125 16.4375 29.074219 16.441406 27.863281 16.449219 C 27.199219 16.449219 26.53125 16.453125 25.863281 16.457031 C 25.511719 16.460938 25.160156 16.460938 24.808594 16.464844 C 23.539062 16.46875 22.273438 16.472656 21.011719 16.582031 C 20.929688 16.589844 20.847656 16.597656 20.761719 16.605469 C 20.230469 16.660156 19.796875 16.800781 19.300781 17 C 19.003906 17.050781 19.003906 17.050781 18.75 17.070312 C 18.621094 17.078125 18.621094 17.078125 18.492188 17.089844 C 18.394531 17.09375 18.394531 17.09375 18.300781 17.101562 C 19.054688 16.597656 19.855469 16.429688 20.742188 16.332031 C 20.9375 16.308594 21.132812 16.285156 21.324219 16.261719 C 21.410156 16.25 21.492188 16.242188 21.578125 16.234375 C 21.816406 16.203125 21.816406 16.203125 22.101562 16.101562 C 22.273438 16.089844 22.449219 16.085938 22.625 16.089844 C 22.734375 16.085938 22.84375 16.085938 22.957031 16.085938 C 23.136719 16.089844 23.136719 16.089844 23.316406 16.089844 C 23.445312 16.089844 23.570312 16.089844 23.699219 16.089844 C 24.042969 16.089844 24.390625 16.089844 24.734375 16.089844 C 25.097656 16.089844 25.457031 16.089844 25.816406 16.089844 C 26.5 16.089844 27.183594 16.089844 27.867188 16.09375 C 28.644531 16.09375 29.421875 16.09375 30.199219 16.09375 C 31.800781 16.097656 33.398438 16.097656 35 16.101562 C 35 15.011719 35 13.921875 35 12.800781 Z M 35 12.800781 "></path><path style=" stroke:none;fill-rule:nonzero;fill:rgb(60.784314%,47.058824%,87.45098%);fill-opacity:1;" d="M 15.101562 26.5 C 15.566406 26.496094 16.03125 26.496094 16.5 26.496094 C 16.65625 26.492188 16.816406 26.492188 16.976562 26.492188 C 17.203125 26.492188 17.429688 26.492188 17.660156 26.492188 C 17.765625 26.488281 17.765625 26.488281 17.875 26.488281 C 18.378906 26.488281 18.378906 26.488281 18.601562 26.601562 C 18.632812 28.25 18.664062 29.898438 18.699219 31.601562 C 18.667969 31.535156 18.632812 31.46875 18.601562 31.398438 C 18.535156 31.398438 18.46875 31.398438 18.398438 31.398438 C 18.070312 29.953125 18.1875 28.371094 18.199219 26.898438 C 18.082031 26.902344 17.964844 26.902344 17.84375 26.902344 C 17.6875 26.90625 17.53125 26.90625 17.375 26.90625 C 17.296875 26.90625 17.21875 26.90625 17.140625 26.910156 C 17.027344 26.910156 17.027344 26.910156 16.910156 26.910156 C 16.808594 26.910156 16.808594 26.910156 16.703125 26.910156 C 16.488281 26.898438 16.304688 26.851562 16.101562 26.800781 C 15.867188 26.796875 15.632812 26.796875 15.398438 26.800781 C 15.402344 26.871094 15.402344 26.941406 15.402344 27.011719 C 15.40625 27.148438 15.40625 27.148438 15.40625 27.289062 C 15.40625 27.378906 15.410156 27.46875 15.410156 27.5625 C 15.398438 27.800781 15.398438 27.800781 15.300781 28 C 15.289062 28.265625 15.285156 28.53125 15.285156 28.796875 C 15.285156 28.878906 15.28125 28.964844 15.28125 29.046875 C 15.28125 29.320312 15.28125 29.59375 15.28125 29.867188 C 15.277344 30.058594 15.277344 30.246094 15.277344 30.4375 C 15.277344 30.835938 15.277344 31.234375 15.277344 31.628906 C 15.277344 32.140625 15.273438 32.652344 15.269531 33.160156 C 15.269531 33.550781 15.269531 33.945312 15.269531 34.335938 C 15.265625 34.523438 15.265625 34.710938 15.265625 34.898438 C 15.261719 35.164062 15.265625 35.425781 15.265625 35.6875 C 15.261719 35.765625 15.261719 35.84375 15.261719 35.925781 C 15.253906 36.335938 15.253906 36.335938 15.453125 36.675781 C 15.523438 36.738281 15.523438 36.738281 15.601562 36.800781 C 15.601562 36.933594 15.601562 37.0625 15.601562 37.199219 C 15.402344 37.199219 15.203125 37.199219 15 37.199219 C 14.996094 35.835938 14.996094 34.46875 14.996094 33.101562 C 14.996094 32.46875 14.992188 31.835938 14.992188 31.203125 C 14.992188 30.589844 14.992188 29.976562 14.992188 29.367188 C 14.992188 29.132812 14.988281 28.898438 14.988281 28.664062 C 14.988281 28.339844 14.988281 28.011719 14.988281 27.6875 C 14.988281 27.539062 14.988281 27.539062 14.988281 27.390625 C 14.988281 27.300781 14.988281 27.214844 14.988281 27.121094 C 14.988281 27.046875 14.988281 26.96875 14.988281 26.886719 C 15 26.699219 15 26.699219 15.101562 26.5 Z M 15.101562 26.5 "></path><path style=" stroke:none;fill-rule:nonzero;fill:rgb(83.921569%,83.921569%,84.313725%);fill-opacity:1;" d="M 17.300781 17.300781 C 17.367188 17.332031 17.433594 17.367188 17.5 17.398438 C 17.089844 17.738281 16.707031 18.03125 16.199219 18.199219 C 16.171875 18.257812 16.140625 18.316406 16.113281 18.375 C 16 18.601562 16 18.601562 15.761719 18.804688 C 15.445312 19.160156 15.339844 19.488281 15.191406 19.9375 C 15.085938 20.238281 14.941406 20.511719 14.800781 20.800781 C 14.484375 21.75 14.367188 22.746094 14.289062 23.738281 C 14.28125 23.84375 14.273438 23.953125 14.265625 24.0625 C 14.171875 25.371094 14.164062 26.679688 14.160156 27.992188 C 14.15625 28.257812 14.15625 28.527344 14.152344 28.792969 C 14.148438 29.417969 14.144531 30.042969 14.140625 30.667969 C 14.136719 31.382812 14.132812 32.097656 14.128906 32.808594 C 14.117188 34.273438 14.109375 35.738281 14.101562 37.199219 C 14.035156 37.199219 13.96875 37.199219 13.898438 37.199219 C 13.894531 35.578125 13.890625 33.957031 13.890625 32.332031 C 13.886719 31.578125 13.886719 30.824219 13.886719 30.074219 C 13.882812 29.414062 13.882812 28.757812 13.882812 28.097656 C 13.882812 27.75 13.878906 27.402344 13.878906 27.054688 C 13.875 25.65625 13.890625 24.261719 13.988281 22.863281 C 13.996094 22.75 14.003906 22.632812 14.011719 22.511719 C 14.019531 22.40625 14.027344 22.300781 14.039062 22.191406 C 14.042969 22.097656 14.050781 22.007812 14.058594 21.910156 C 14.074219 21.839844 14.085938 21.773438 14.101562 21.699219 C 14.199219 21.652344 14.199219 21.652344 14.300781 21.601562 C 14.335938 21.367188 14.371094 21.132812 14.398438 20.898438 C 14.511719 20.523438 14.648438 20.160156 14.800781 19.800781 C 14.828125 19.726562 14.855469 19.65625 14.882812 19.578125 C 15.085938 19.074219 15.214844 18.867188 15.699219 18.601562 C 15.859375 18.402344 16.003906 18.195312 16.148438 17.984375 C 16.320312 17.777344 16.449219 17.695312 16.699219 17.601562 C 16.800781 17.601562 16.898438 17.601562 17 17.601562 C 17 17.535156 17 17.46875 17 17.398438 C 17.097656 17.367188 17.199219 17.335938 17.300781 17.300781 Z M 17.300781 17.300781 "></path><path style=" stroke:none;fill-rule:nonzero;fill:rgb(78.431373%,78.431373%,78.823529%);fill-opacity:1;" d="M 12.199219 15.398438 C 12.265625 15.398438 12.332031 15.398438 12.398438 15.398438 C 12.382812 15.574219 12.382812 15.574219 12.300781 15.800781 C 12.179688 15.894531 12.179688 15.894531 12.054688 15.992188 C 11.769531 16.222656 11.707031 16.355469 11.601562 16.699219 C 11.570312 16.773438 11.539062 16.84375 11.507812 16.917969 C 11.351562 17.328125 11.257812 17.753906 11.160156 18.183594 C 11.109375 18.378906 11.109375 18.378906 11 18.699219 C 10.851562 18.75 10.851562 18.75 10.699219 18.800781 C 10.6875 18.914062 10.671875 19.027344 10.660156 19.144531 C 10.640625 19.292969 10.625 19.4375 10.605469 19.585938 C 10.597656 19.664062 10.589844 19.738281 10.578125 19.8125 C 10.511719 20.378906 10.511719 20.378906 10.398438 20.601562 C 10.375 20.921875 10.355469 21.246094 10.339844 21.566406 C 10.308594 22.089844 10.308594 22.089844 10.199219 22.199219 C 10.191406 22.382812 10.1875 22.570312 10.1875 22.753906 C 10.1875 22.875 10.1875 22.996094 10.1875 23.121094 C 10.1875 23.253906 10.191406 23.390625 10.191406 23.523438 C 10.191406 23.664062 10.191406 23.804688 10.191406 23.945312 C 10.191406 24.25 10.191406 24.554688 10.191406 24.859375 C 10.195312 25.339844 10.195312 25.820312 10.195312 26.300781 C 10.195312 27.410156 10.199219 28.519531 10.199219 29.628906 C 10.203125 30.644531 10.203125 31.660156 10.207031 32.671875 C 10.207031 33.152344 10.207031 33.628906 10.207031 34.109375 C 10.207031 34.40625 10.210938 34.703125 10.210938 35 C 10.210938 35.140625 10.210938 35.277344 10.210938 35.414062 C 10.210938 35.605469 10.210938 35.792969 10.210938 35.980469 C 10.210938 36.085938 10.210938 36.191406 10.210938 36.300781 C 10.199219 36.609375 10.15625 36.898438 10.101562 37.199219 C 10.035156 37.199219 9.96875 37.199219 9.898438 37.199219 C 9.894531 35.335938 9.886719 33.46875 9.882812 31.601562 C 9.882812 30.738281 9.878906 29.871094 9.878906 29.003906 C 9.875 28.246094 9.871094 27.492188 9.871094 26.734375 C 9.871094 26.335938 9.871094 25.9375 9.867188 25.535156 C 9.84375 21.109375 9.84375 21.109375 10.300781 20.199219 C 10.328125 20.011719 10.355469 19.824219 10.382812 19.636719 C 10.496094 18.84375 10.695312 18.074219 10.898438 17.300781 C 10.964844 17.300781 11.03125 17.300781 11.101562 17.300781 C 11.101562 17.167969 11.101562 17.035156 11.101562 16.898438 C 11.164062 16.898438 11.230469 16.898438 11.300781 16.898438 C 11.324219 16.816406 11.34375 16.730469 11.367188 16.644531 C 11.519531 16.25 11.710938 15.910156 12 15.601562 C 12.066406 15.601562 12.132812 15.601562 12.199219 15.601562 C 12.199219 15.535156 12.199219 15.46875 12.199219 15.398438 Z M 12.199219 15.398438 "></path><path style=" stroke:none;fill-rule:nonzero;fill:rgb(57.254902%,41.176471%,90.196078%);fill-opacity:1;" d="M 18.699219 31.800781 C 19.128906 32.058594 19.355469 32.265625 19.601562 32.699219 C 19.699219 32.734375 19.796875 32.765625 19.898438 32.800781 C 20 32.949219 20 32.949219 20.101562 33.101562 C 21.132812 33.589844 22.289062 33.515625 23.410156 33.515625 C 23.542969 33.515625 23.679688 33.515625 23.8125 33.519531 C 24.089844 33.519531 24.371094 33.519531 24.648438 33.519531 C 25.003906 33.519531 25.355469 33.519531 25.707031 33.523438 C 25.984375 33.523438 26.261719 33.523438 26.535156 33.523438 C 26.730469 33.523438 26.921875 33.523438 27.113281 33.523438 C 27.878906 33.523438 28.613281 33.460938 29.371094 33.34375 C 29.785156 33.289062 30.179688 33.285156 30.601562 33.300781 C 30.632812 33.199219 30.664062 33.101562 30.699219 33 C 30.78125 32.988281 30.859375 32.976562 30.941406 32.96875 C 31.523438 32.878906 31.976562 32.773438 32.5 32.5 C 32.835938 32.480469 32.835938 32.480469 33.101562 32.5 C 32.738281 33.007812 32.527344 33.164062 31.898438 33.300781 C 31.761719 33.347656 31.621094 33.398438 31.480469 33.449219 C 30.351562 33.824219 29.207031 33.828125 28.03125 33.824219 C 27.863281 33.824219 27.695312 33.824219 27.523438 33.824219 C 27.171875 33.824219 26.816406 33.820312 26.464844 33.820312 C 26.015625 33.820312 25.570312 33.820312 25.121094 33.820312 C 24.769531 33.820312 24.421875 33.816406 24.070312 33.816406 C 23.90625 33.816406 23.742188 33.816406 23.578125 33.816406 C 22.757812 33.816406 21.941406 33.804688 21.121094 33.761719 C 20.996094 33.757812 20.871094 33.75 20.742188 33.742188 C 20.246094 33.679688 19.785156 33.527344 19.398438 33.199219 C 19.273438 32.933594 19.273438 32.933594 19.199219 32.699219 C 19.132812 32.699219 19.066406 32.699219 19 32.699219 C 18.875 32.402344 18.769531 32.113281 18.699219 31.800781 Z M 18.699219 31.800781 "></path><path style=" stroke:none;fill-rule:nonzero;fill:rgb(69.803922%,58.823529%,90.196078%);fill-opacity:1;" d="M 40.101562 12.800781 C 40.132812 12.800781 40.164062 12.800781 40.199219 12.800781 C 40.3125 14.253906 40.316406 15.707031 40.316406 17.167969 C 40.316406 17.421875 40.316406 17.679688 40.316406 17.9375 C 40.320312 18.472656 40.320312 19.007812 40.320312 19.542969 C 40.320312 20.15625 40.320312 20.769531 40.320312 21.382812 C 40.324219 21.976562 40.324219 22.574219 40.324219 23.171875 C 40.324219 23.421875 40.324219 23.671875 40.324219 23.921875 C 40.328125 25.996094 40.277344 28.054688 39.8125 30.082031 C 39.789062 30.195312 39.765625 30.3125 39.738281 30.429688 C 39.585938 31.117188 39.386719 31.757812 39.101562 32.398438 C 39.035156 32.398438 38.96875 32.398438 38.898438 32.398438 C 38.882812 32.515625 38.882812 32.515625 38.867188 32.636719 C 38.800781 32.898438 38.800781 32.898438 38.5 33.101562 C 38.53125 32.902344 38.566406 32.703125 38.601562 32.5 C 38.664062 32.5 38.730469 32.5 38.800781 32.5 C 38.828125 32.398438 38.855469 32.292969 38.882812 32.1875 C 38.953125 31.933594 39.027344 31.746094 39.15625 31.511719 C 39.3125 31.167969 39.347656 30.898438 39.367188 30.523438 C 39.40625 30.257812 39.5 30.046875 39.601562 29.800781 C 39.851562 28.917969 39.925781 28.046875 39.957031 27.136719 C 39.960938 27.023438 39.964844 26.910156 39.96875 26.796875 C 40.011719 25.472656 40.023438 24.152344 40.03125 22.832031 C 40.03125 22.476562 40.035156 22.121094 40.039062 21.769531 C 40.042969 21.101562 40.046875 20.433594 40.050781 19.765625 C 40.058594 19.007812 40.0625 18.246094 40.066406 17.484375 C 40.078125 15.921875 40.089844 14.363281 40.101562 12.800781 Z M 40.101562 12.800781 "></path><path style=" stroke:none;fill-rule:nonzero;fill:rgb(83.137255%,78.431373%,91.764706%);fill-opacity:1;" d="M 15.472656 26.386719 C 15.554688 26.386719 15.632812 26.386719 15.714844 26.386719 C 15.796875 26.386719 15.878906 26.386719 15.964844 26.386719 C 16.136719 26.386719 16.308594 26.386719 16.484375 26.386719 C 16.75 26.386719 17.015625 26.386719 17.28125 26.386719 C 17.449219 26.386719 17.617188 26.386719 17.785156 26.386719 C 17.863281 26.386719 17.945312 26.386719 18.027344 26.386719 C 18.589844 26.386719 18.589844 26.386719 18.699219 26.5 C 18.710938 26.636719 18.714844 26.777344 18.714844 26.914062 C 18.71875 27 18.71875 27.089844 18.71875 27.179688 C 18.71875 27.273438 18.71875 27.371094 18.722656 27.46875 C 18.722656 27.671875 18.726562 27.871094 18.730469 28.074219 C 18.734375 28.394531 18.738281 28.710938 18.738281 29.03125 C 18.742188 29.335938 18.746094 29.644531 18.753906 29.949219 C 18.753906 30.046875 18.753906 30.140625 18.753906 30.238281 C 18.765625 30.804688 18.851562 31.191406 19.101562 31.699219 C 19.070312 31.945312 19.070312 31.945312 19 32.101562 C 18.785156 31.929688 18.707031 31.824219 18.640625 31.554688 C 18.585938 31.082031 18.585938 30.613281 18.589844 30.136719 C 18.589844 30.035156 18.589844 29.933594 18.589844 29.828125 C 18.589844 29.507812 18.59375 29.183594 18.59375 28.863281 C 18.59375 28.644531 18.59375 28.425781 18.59375 28.207031 C 18.597656 27.671875 18.597656 27.136719 18.601562 26.601562 C 17.445312 26.566406 16.289062 26.535156 15.101562 26.5 C 15.066406 30.03125 15.035156 33.5625 15 37.199219 C 14.933594 37.199219 14.867188 37.199219 14.800781 37.199219 C 14.796875 35.804688 14.796875 34.414062 14.792969 33.019531 C 14.792969 32.371094 14.792969 31.726562 14.792969 31.078125 C 14.792969 30.457031 14.789062 29.832031 14.789062 29.207031 C 14.789062 28.96875 14.789062 28.730469 14.789062 28.492188 C 14.789062 28.160156 14.789062 27.828125 14.789062 27.492188 C 14.789062 27.394531 14.789062 27.292969 14.789062 27.191406 C 14.789062 27.101562 14.789062 27.011719 14.789062 26.917969 C 14.789062 26.839844 14.789062 26.761719 14.789062 26.679688 C 14.816406 26.273438 15.140625 26.386719 15.472656 26.386719 Z M 15.472656 26.386719 "></path><path style=" stroke:none;fill-rule:nonzero;fill:rgb(56.470588%,38.039216%,89.803922%);fill-opacity:1;" d="M 36 12.800781 C 36.097656 12.800781 36.199219 12.800781 36.300781 12.800781 C 36.300781 21.652344 36.300781 21.652344 36.277344 22.410156 C 36.226562 24.207031 36.183594 26.003906 36.199219 27.800781 C 36.132812 27.800781 36.066406 27.800781 36 27.800781 C 36 22.851562 36 17.898438 36 12.800781 Z M 36 12.800781 "></path><path style=" stroke:none;fill-rule:nonzero;fill:rgb(55.686275%,38.823529%,91.372549%);fill-opacity:1;" d="M 37.898438 33.398438 C 38.03125 33.398438 38.164062 33.398438 38.300781 33.398438 C 38.300781 33.464844 38.300781 33.53125 38.300781 33.601562 C 38.234375 33.601562 38.167969 33.601562 38.101562 33.601562 C 38.070312 33.65625 38.042969 33.714844 38.015625 33.773438 C 37.902344 33.996094 37.785156 34.207031 37.65625 34.417969 C 37.59375 34.523438 37.59375 34.523438 37.53125 34.628906 C 37.398438 34.800781 37.398438 34.800781 37.101562 34.898438 C 37.101562 34.964844 37.101562 35.03125 37.101562 35.101562 C 37.035156 35.101562 36.96875 35.101562 36.898438 35.101562 C 36.898438 35.164062 36.898438 35.230469 36.898438 35.300781 C 35.734375 36.316406 34.179688 37.230469 32.601562 37.199219 C 32.84375 36.863281 33.136719 36.832031 33.527344 36.761719 C 33.582031 36.742188 33.640625 36.722656 33.699219 36.699219 C 33.734375 36.601562 33.765625 36.503906 33.800781 36.398438 C 33.996094 36.34375 33.996094 36.34375 34.238281 36.3125 C 34.480469 36.273438 34.480469 36.273438 34.699219 36.199219 C 34.867188 35.957031 34.867188 35.957031 35 35.699219 C 35.351562 35.515625 35.601562 35.398438 36 35.398438 C 36.019531 35.34375 36.042969 35.285156 36.0625 35.226562 C 36.25 34.914062 36.488281 34.78125 36.800781 34.601562 C 36.867188 34.601562 36.933594 34.601562 37 34.601562 C 37.023438 34.503906 37.046875 34.410156 37.070312 34.3125 C 37.199219 34 37.199219 34 37.449219 33.886719 C 37.53125 33.859375 37.613281 33.828125 37.699219 33.800781 C 37.835938 33.597656 37.835938 33.597656 37.898438 33.398438 Z M 37.898438 33.398438 "></path><path style=" stroke:none;fill-rule:nonzero;fill:rgb(36.470588%,36.470588%,35.686275%);fill-opacity:1;" d="M 18 18.601562 C 18 18.664062 18 18.730469 18 18.800781 C 17.914062 18.828125 17.914062 18.828125 17.824219 18.855469 C 17.578125 19.011719 17.53125 19.105469 17.398438 19.355469 C 17.199219 19.699219 17.199219 19.699219 16.976562 19.792969 C 16.917969 19.796875 16.859375 19.796875 16.800781 19.800781 C 16.800781 19.867188 16.800781 19.933594 16.800781 20 C 16.734375 20 16.667969 20 16.601562 20 C 16.585938 20.058594 16.574219 20.113281 16.5625 20.175781 C 16.5 20.402344 16.421875 20.601562 16.320312 20.8125 C 16.289062 20.878906 16.253906 20.949219 16.222656 21.019531 C 16.101562 21.199219 16.101562 21.199219 15.898438 21.277344 C 15.679688 21.382812 15.679688 21.382812 15.617188 21.632812 C 15.601562 21.726562 15.589844 21.824219 15.574219 21.921875 C 15.558594 22.027344 15.539062 22.132812 15.523438 22.242188 C 15.507812 22.355469 15.492188 22.464844 15.476562 22.582031 C 15.457031 22.6875 15.441406 22.796875 15.421875 22.90625 C 15.304688 23.695312 15.300781 24.378906 15.300781 25.199219 C 16.289062 25.234375 17.28125 25.265625 18.300781 25.300781 C 18.300781 25.199219 18.300781 25.101562 18.300781 25 C 18.367188 25 18.433594 25 18.5 25 C 18.527344 24.90625 18.554688 24.8125 18.582031 24.71875 C 18.695312 24.414062 18.769531 24.308594 19 24.101562 C 18.957031 24.261719 18.914062 24.421875 18.867188 24.582031 C 18.84375 24.671875 18.820312 24.761719 18.796875 24.851562 C 18.695312 25.113281 18.621094 25.234375 18.398438 25.398438 C 17.871094 25.578125 17.292969 25.519531 16.742188 25.519531 C 16.539062 25.519531 16.332031 25.519531 16.128906 25.523438 C 15.9375 25.523438 15.9375 25.523438 15.738281 25.523438 C 15.5625 25.523438 15.5625 25.523438 15.382812 25.523438 C 15.101562 25.5 15.101562 25.5 14.898438 25.300781 C 14.886719 25.085938 14.886719 25.085938 14.902344 24.820312 C 14.90625 24.726562 14.914062 24.632812 14.917969 24.535156 C 14.925781 24.4375 14.929688 24.339844 14.9375 24.238281 C 14.941406 24.136719 14.949219 24.039062 14.953125 23.9375 C 14.96875 23.691406 14.984375 23.445312 15 23.199219 C 15.066406 23.199219 15.132812 23.199219 15.199219 23.199219 C 15.199219 23.140625 15.195312 23.085938 15.191406 23.023438 C 15.179688 22.535156 15.226562 22.164062 15.398438 21.699219 C 15.4375 21.5 15.472656 21.300781 15.5 21.101562 C 15.566406 21.101562 15.632812 21.101562 15.699219 21.101562 C 15.734375 20.96875 15.765625 20.835938 15.800781 20.699219 C 15.867188 20.699219 15.933594 20.699219 16 20.699219 C 16.019531 20.632812 16.042969 20.566406 16.0625 20.5 C 16.378906 19.804688 17.179688 18.601562 18 18.601562 Z M 18 18.601562 "></path><path style=" stroke:none;fill-rule:nonzero;fill:rgb(58.039216%,41.176471%,91.764706%);fill-opacity:1;" d="M 39.800781 12.800781 C 39.898438 12.800781 39.996094 12.800781 40.101562 12.800781 C 40.101562 14.4375 40.105469 16.074219 40.105469 17.710938 C 40.105469 18.472656 40.105469 19.230469 40.109375 19.992188 C 40.109375 20.65625 40.109375 21.320312 40.109375 21.984375 C 40.109375 22.335938 40.109375 22.6875 40.109375 23.035156 C 40.113281 24.398438 40.109375 25.761719 40.0625 27.125 C 40.058594 27.277344 40.058594 27.277344 40.050781 27.433594 C 40.015625 28.375 39.878906 29.300781 39.601562 30.199219 C 39.535156 30.234375 39.46875 30.265625 39.398438 30.300781 C 39.378906 29.671875 39.414062 29.105469 39.601562 28.5 C 39.632812 28.46875 39.664062 28.433594 39.699219 28.398438 C 39.835938 27.617188 39.835938 26.820312 39.855469 26.023438 C 39.859375 25.945312 39.859375 25.863281 39.863281 25.777344 C 39.910156 23.851562 39.910156 21.925781 39.914062 20 C 39.914062 19.753906 39.914062 19.507812 39.914062 19.261719 C 39.917969 17.105469 39.882812 14.953125 39.800781 12.800781 Z M 39.800781 12.800781 "></path><path style=" stroke:none;fill-rule:nonzero;fill:rgb(88.627451%,89.019608%,89.019608%);fill-opacity:1;" d="M 35.199219 16.300781 C 35.035156 16.464844 34.839844 16.414062 34.613281 16.414062 C 34.507812 16.414062 34.402344 16.414062 34.292969 16.417969 C 34.117188 16.417969 34.117188 16.417969 33.9375 16.417969 C 33.753906 16.417969 33.753906 16.417969 33.566406 16.417969 C 33.300781 16.421875 33.03125 16.421875 32.765625 16.421875 C 32.339844 16.425781 31.914062 16.425781 31.488281 16.429688 C 30.28125 16.4375 29.074219 16.441406 27.863281 16.449219 C 27.199219 16.449219 26.53125 16.453125 25.863281 16.457031 C 25.511719 16.460938 25.160156 16.460938 24.808594 16.464844 C 23.539062 16.46875 22.273438 16.472656 21.011719 16.582031 C 20.886719 16.59375 20.886719 16.59375 20.761719 16.605469 C 20.230469 16.660156 19.796875 16.800781 19.300781 17 C 19.003906 17.050781 19.003906 17.050781 18.75 17.070312 C 18.621094 17.078125 18.621094 17.078125 18.492188 17.089844 C 18.425781 17.09375 18.363281 17.097656 18.300781 17.101562 C 19.503906 16.296875 20.9375 16.269531 22.339844 16.265625 C 22.476562 16.265625 22.617188 16.265625 22.753906 16.261719 C 23.128906 16.261719 23.5 16.257812 23.871094 16.257812 C 24.261719 16.253906 24.65625 16.25 25.046875 16.25 C 25.699219 16.242188 26.355469 16.238281 27.011719 16.238281 C 27.769531 16.234375 28.527344 16.226562 29.285156 16.222656 C 30.015625 16.21875 30.746094 16.210938 31.476562 16.207031 C 31.785156 16.207031 32.097656 16.203125 32.40625 16.203125 C 32.773438 16.199219 33.136719 16.199219 33.5 16.195312 C 33.699219 16.195312 33.898438 16.191406 34.09375 16.191406 C 34.210938 16.191406 34.328125 16.191406 34.449219 16.191406 C 34.601562 16.191406 34.601562 16.191406 34.757812 16.1875 C 35 16.199219 35 16.199219 35.199219 16.300781 Z M 35.199219 16.300781 "></path><path style=" stroke:none;fill-rule:nonzero;fill:rgb(83.921569%,79.215686%,92.54902%);fill-opacity:1;" d="M 20.5 33.199219 C 20.585938 33.214844 20.671875 33.234375 20.761719 33.25 C 21.085938 33.296875 21.386719 33.3125 21.714844 33.3125 C 21.835938 33.3125 21.957031 33.3125 22.078125 33.3125 C 22.273438 33.3125 22.273438 33.3125 22.46875 33.3125 C 22.605469 33.3125 22.742188 33.3125 22.878906 33.3125 C 23.164062 33.3125 23.449219 33.3125 23.734375 33.3125 C 24.09375 33.3125 24.453125 33.3125 24.8125 33.3125 C 26.183594 33.316406 27.554688 33.3125 28.921875 33.222656 C 29.480469 33.1875 30.039062 33.191406 30.601562 33.199219 C 30.601562 33.234375 30.601562 33.265625 30.601562 33.300781 C 28.804688 33.585938 27.039062 33.640625 25.226562 33.625 C 24.945312 33.625 24.667969 33.625 24.390625 33.625 C 24.054688 33.625 23.714844 33.621094 23.378906 33.621094 C 23.195312 33.621094 23.195312 33.621094 23.007812 33.617188 C 20.96875 33.601562 20.96875 33.601562 20.5 33.199219 Z M 20.5 33.199219 "></path><path style=" stroke:none;fill-rule:nonzero;fill:rgb(16.078431%,15.294118%,16.078431%);fill-opacity:1;" d="M 23.574219 17.390625 C 23.761719 17.390625 23.945312 17.390625 24.132812 17.390625 C 24.617188 17.390625 25.105469 17.390625 25.589844 17.394531 C 26.085938 17.394531 26.585938 17.394531 27.082031 17.394531 C 28.054688 17.394531 29.027344 17.398438 30 17.398438 C 30 17.433594 30 17.464844 30 17.5 C 29.90625 17.5 29.816406 17.503906 29.71875 17.503906 C 28.851562 17.511719 27.980469 17.523438 27.109375 17.535156 C 26.660156 17.539062 26.210938 17.542969 25.765625 17.550781 C 25.332031 17.554688 24.898438 17.558594 24.46875 17.566406 C 24.300781 17.566406 24.136719 17.570312 23.972656 17.570312 C 23.742188 17.574219 23.511719 17.578125 23.28125 17.578125 C 23.148438 17.582031 23.015625 17.582031 22.882812 17.585938 C 22.480469 17.601562 22.097656 17.648438 21.699219 17.699219 C 21.550781 17.707031 21.398438 17.710938 21.25 17.710938 C 21.175781 17.710938 21.101562 17.710938 21.023438 17.707031 C 20.949219 17.707031 20.875 17.707031 20.800781 17.707031 C 20.722656 17.707031 20.644531 17.707031 20.566406 17.703125 C 20.375 17.703125 20.1875 17.703125 20 17.699219 C 20 17.832031 20 17.964844 20 18.101562 C 19.339844 18.230469 18.679688 18.363281 18 18.5 C 18.28125 18.078125 18.621094 18.019531 19.101562 17.898438 C 19.40625 17.882812 19.40625 17.882812 19.601562 17.898438 C 19.601562 17.835938 19.601562 17.769531 19.601562 17.699219 C 20.832031 17.246094 22.277344 17.386719 23.574219 17.390625 Z M 23.574219 17.390625 "></path><path style=" stroke:none;fill-rule:nonzero;fill:rgb(50.588235%,50.588235%,50.980392%);fill-opacity:1;" d="M 25.316406 17.070312 C 25.578125 17.070312 25.835938 17.070312 26.097656 17.070312 C 26.707031 17.074219 27.320312 17.074219 27.929688 17.078125 C 28.625 17.082031 29.320312 17.082031 30.015625 17.085938 C 31.445312 17.089844 32.871094 17.09375 34.300781 17.101562 C 34.300781 17.132812 34.300781 17.164062 34.300781 17.199219 C 34.246094 17.199219 34.1875 17.199219 34.132812 17.203125 C 32.785156 17.210938 31.441406 17.222656 30.097656 17.234375 C 29.445312 17.238281 28.796875 17.246094 28.144531 17.25 C 27.515625 17.253906 26.890625 17.257812 26.261719 17.265625 C 26.023438 17.265625 25.78125 17.269531 25.542969 17.269531 C 25.207031 17.273438 24.871094 17.277344 24.535156 17.28125 C 24.386719 17.28125 24.386719 17.28125 24.234375 17.28125 C 24.144531 17.28125 24.050781 17.28125 23.957031 17.285156 C 23.878906 17.285156 23.800781 17.285156 23.71875 17.285156 C 23.5 17.300781 23.3125 17.34375 23.101562 17.398438 C 22.859375 17.421875 22.621094 17.4375 22.382812 17.453125 C 22.28125 17.460938 22.28125 17.460938 22.175781 17.464844 C 21.960938 17.480469 21.742188 17.492188 21.523438 17.507812 C 21.378906 17.515625 21.230469 17.523438 21.082031 17.535156 C 20.722656 17.554688 20.359375 17.578125 20 17.601562 C 20.03125 17.535156 20.066406 17.46875 20.101562 17.398438 C 20.4375 17.3125 20.785156 17.28125 21.128906 17.238281 C 21.292969 17.21875 21.292969 17.21875 21.457031 17.199219 C 22.742188 17.054688 24.023438 17.0625 25.316406 17.070312 Z M 25.316406 17.070312 "></path><path style=" stroke:none;fill-rule:nonzero;fill:rgb(66.27451%,54.117647%,89.019608%);fill-opacity:1;" d="M 18.699219 31.800781 C 19.128906 32.058594 19.355469 32.265625 19.601562 32.699219 C 19.699219 32.734375 19.796875 32.765625 19.898438 32.800781 C 20 32.949219 20 32.949219 20.101562 33.101562 C 21.046875 33.546875 22.085938 33.511719 23.113281 33.53125 C 23.214844 33.535156 23.316406 33.535156 23.417969 33.539062 C 23.734375 33.542969 24.050781 33.550781 24.367188 33.554688 C 24.585938 33.5625 24.800781 33.566406 25.019531 33.570312 C 25.546875 33.578125 26.074219 33.589844 26.601562 33.601562 C 26.601562 33.632812 26.601562 33.664062 26.601562 33.699219 C 25.808594 33.710938 25.019531 33.71875 24.226562 33.726562 C 23.859375 33.726562 23.492188 33.730469 23.125 33.738281 C 22.769531 33.742188 22.414062 33.746094 22.058594 33.746094 C 21.859375 33.75 21.660156 33.753906 21.457031 33.757812 C 20.699219 33.757812 20.003906 33.707031 19.398438 33.199219 C 19.273438 32.933594 19.273438 32.933594 19.199219 32.699219 C 19.132812 32.699219 19.066406 32.699219 19 32.699219 C 18.875 32.402344 18.769531 32.113281 18.699219 31.800781 Z M 18.699219 31.800781 "></path><path style=" stroke:none;fill-rule:nonzero;fill:rgb(82.352941%,76.862745%,91.764706%);fill-opacity:1;" d="M 15.101562 26.398438 C 15.597656 26.398438 16.09375 26.394531 16.589844 26.394531 C 16.757812 26.394531 16.929688 26.394531 17.097656 26.390625 C 17.339844 26.390625 17.582031 26.390625 17.824219 26.390625 C 17.9375 26.390625 17.9375 26.390625 18.054688 26.386719 C 18.238281 26.386719 18.417969 26.394531 18.601562 26.398438 C 18.753906 26.554688 18.714844 26.699219 18.714844 26.914062 C 18.71875 27 18.71875 27.089844 18.71875 27.179688 C 18.71875 27.273438 18.71875 27.371094 18.722656 27.46875 C 18.722656 27.671875 18.726562 27.871094 18.730469 28.074219 C 18.734375 28.394531 18.738281 28.710938 18.738281 29.03125 C 18.742188 29.335938 18.746094 29.644531 18.753906 29.949219 C 18.753906 30.046875 18.753906 30.140625 18.753906 30.238281 C 18.765625 30.804688 18.851562 31.191406 19.101562 31.699219 C 19.070312 31.945312 19.070312 31.945312 19 32.101562 C 18.785156 31.929688 18.707031 31.824219 18.640625 31.554688 C 18.585938 31.082031 18.585938 30.613281 18.589844 30.136719 C 18.589844 30.035156 18.589844 29.933594 18.589844 29.828125 C 18.589844 29.507812 18.59375 29.183594 18.59375 28.863281 C 18.59375 28.644531 18.59375 28.425781 18.59375 28.207031 C 18.597656 27.671875 18.597656 27.136719 18.601562 26.601562 C 17.445312 26.566406 16.289062 26.535156 15.101562 26.5 C 15.101562 26.46875 15.101562 26.433594 15.101562 26.398438 Z M 15.101562 26.398438 "></path><path style=" stroke:none;fill-rule:nonzero;fill:rgb(68.235294%,58.823529%,87.843137%);fill-opacity:1;" d="M 37.5 34.398438 C 37.5 34.5 37.5 34.597656 37.5 34.699219 C 37.300781 34.800781 37.300781 34.800781 37.101562 34.898438 C 37.101562 34.964844 37.101562 35.03125 37.101562 35.101562 C 37.035156 35.101562 36.96875 35.101562 36.898438 35.101562 C 36.898438 35.164062 36.898438 35.230469 36.898438 35.300781 C 36.265625 35.855469 35.507812 36.433594 34.699219 36.699219 C 34.601562 36.667969 34.503906 36.632812 34.398438 36.601562 C 34.492188 36.542969 34.582031 36.484375 34.675781 36.425781 C 34.996094 36.21875 34.996094 36.21875 35.199219 35.980469 C 35.457031 35.75 35.660156 35.730469 36 35.699219 C 36 35.632812 36 35.566406 36 35.5 C 36.097656 35.5 36.199219 35.5 36.300781 35.5 C 36.300781 35.402344 36.300781 35.300781 36.300781 35.199219 C 36.464844 35.09375 36.628906 34.996094 36.800781 34.898438 C 36.832031 34.835938 36.867188 34.769531 36.898438 34.699219 C 37.066406 34.628906 37.230469 34.5625 37.398438 34.5 C 37.433594 34.46875 37.464844 34.433594 37.5 34.398438 Z M 37.5 34.398438 "></path><path style=" stroke:none;fill-rule:nonzero;fill:rgb(32.156863%,31.764706%,31.764706%);fill-opacity:1;" d="M 18 18.601562 C 18 18.664062 18 18.730469 18 18.800781 C 17.914062 18.828125 17.914062 18.828125 17.824219 18.855469 C 17.578125 19.011719 17.53125 19.105469 17.398438 19.355469 C 17.199219 19.699219 17.199219 19.699219 16.976562 19.792969 C 16.917969 19.796875 16.859375 19.796875 16.800781 19.800781 C 16.800781 19.867188 16.800781 19.933594 16.800781 20 C 16.734375 20 16.667969 20 16.601562 20 C 16.585938 20.058594 16.574219 20.113281 16.5625 20.171875 C 16.5 20.40625 16.417969 20.605469 16.3125 20.820312 C 16.28125 20.886719 16.246094 20.957031 16.214844 21.03125 C 16.101562 21.199219 16.101562 21.199219 15.800781 21.300781 C 15.929688 20.207031 16.671875 19.480469 17.453125 18.78125 C 17.699219 18.601562 17.699219 18.601562 18 18.601562 Z M 18 18.601562 "></path><path style=" stroke:none;fill-rule:nonzero;fill:rgb(67.843137%,57.254902%,88.235294%);fill-opacity:1;" d="M 40 27.699219 C 40.03125 27.699219 40.066406 27.699219 40.101562 27.699219 C 40.136719 28.496094 39.996094 29.21875 39.824219 29.992188 C 39.800781 30.113281 39.773438 30.234375 39.75 30.359375 C 39.59375 31.074219 39.398438 31.734375 39.101562 32.398438 C 39.035156 32.398438 38.96875 32.398438 38.898438 32.398438 C 38.890625 32.476562 38.878906 32.558594 38.867188 32.636719 C 38.800781 32.898438 38.800781 32.898438 38.5 33.101562 C 38.550781 32.804688 38.550781 32.804688 38.601562 32.5 C 38.664062 32.5 38.730469 32.5 38.800781 32.5 C 38.828125 32.398438 38.855469 32.292969 38.882812 32.1875 C 38.953125 31.933594 39.027344 31.746094 39.15625 31.511719 C 39.3125 31.167969 39.347656 30.898438 39.367188 30.523438 C 39.398438 30.300781 39.398438 30.300781 39.496094 30.066406 C 39.597656 29.808594 39.65625 29.566406 39.707031 29.292969 C 39.734375 29.152344 39.734375 29.152344 39.757812 29.007812 C 39.777344 28.914062 39.792969 28.816406 39.8125 28.71875 C 39.832031 28.621094 39.847656 28.523438 39.867188 28.421875 C 39.914062 28.179688 39.957031 27.941406 40 27.699219 Z M 40 27.699219 "></path><path style=" stroke:none;fill-rule:nonzero;fill:rgb(82.352941%,82.352941%,83.137255%);fill-opacity:1;" d="M 17.898438 12.898438 C 17.726562 13.074219 17.46875 13.042969 17.230469 13.070312 C 16.5625 13.164062 16.027344 13.375 15.417969 13.65625 C 15.117188 13.792969 14.816406 13.898438 14.5 14 C 14.089844 14.144531 13.683594 14.292969 13.300781 14.5 C 13.300781 14.433594 13.300781 14.367188 13.300781 14.300781 C 13.875 13.855469 14.519531 13.601562 15.214844 13.394531 C 15.507812 13.304688 15.507812 13.304688 15.792969 13.148438 C 16.136719 12.980469 16.433594 12.925781 16.8125 12.875 C 16.933594 12.859375 17.050781 12.839844 17.175781 12.824219 C 17.457031 12.804688 17.636719 12.808594 17.898438 12.898438 Z M 17.898438 12.898438 "></path><path style=" stroke:none;fill-rule:nonzero;fill:rgb(58.823529%,58.431373%,58.823529%);fill-opacity:1;" d="M 25.398438 17.101562 C 25.398438 17.132812 25.398438 17.164062 25.398438 17.199219 C 25.34375 17.203125 25.289062 17.203125 25.230469 17.207031 C 24.980469 17.21875 24.726562 17.230469 24.476562 17.242188 C 24.34375 17.25 24.34375 17.25 24.210938 17.253906 C 24.125 17.261719 24.042969 17.265625 23.953125 17.269531 C 23.878906 17.273438 23.800781 17.277344 23.71875 17.28125 C 23.503906 17.292969 23.503906 17.292969 23.316406 17.347656 C 23.007812 17.421875 22.699219 17.433594 22.382812 17.453125 C 22.28125 17.460938 22.28125 17.460938 22.175781 17.464844 C 21.960938 17.480469 21.742188 17.492188 21.523438 17.507812 C 21.378906 17.515625 21.230469 17.523438 21.082031 17.535156 C 20.722656 17.554688 20.359375 17.578125 20 17.601562 C 20.03125 17.535156 20.066406 17.46875 20.101562 17.398438 C 20.433594 17.308594 20.78125 17.28125 21.125 17.238281 C 21.28125 17.21875 21.28125 17.21875 21.441406 17.199219 C 22.757812 17.046875 24.078125 17.074219 25.398438 17.101562 Z M 25.398438 17.101562 "></path><path style=" stroke:none;fill-rule:nonzero;fill:rgb(67.843137%,55.294118%,90.980392%);fill-opacity:1;" d="M 34.800781 30.5 C 34.800781 30.890625 34.679688 30.96875 34.417969 31.25 C 34.3125 31.367188 34.3125 31.367188 34.203125 31.484375 C 34.039062 31.660156 33.871094 31.832031 33.699219 32 C 33.765625 32 33.832031 32 33.898438 32 C 33.898438 31.933594 33.898438 31.867188 33.898438 31.800781 C 34.136719 31.632812 34.136719 31.632812 34.398438 31.5 C 34.464844 31.53125 34.53125 31.566406 34.601562 31.601562 C 34.5 31.75 34.5 31.75 34.398438 31.898438 C 34.335938 31.898438 34.269531 31.898438 34.199219 31.898438 C 34.199219 31.964844 34.199219 32.03125 34.199219 32.101562 C 34.027344 32.171875 33.851562 32.238281 33.675781 32.304688 C 33.578125 32.34375 33.480469 32.382812 33.378906 32.421875 C 33.097656 32.5 32.96875 32.503906 32.699219 32.398438 C 32.769531 32.351562 32.769531 32.351562 32.84375 32.300781 C 32.90625 32.257812 32.96875 32.214844 33.03125 32.167969 C 33.09375 32.125 33.152344 32.082031 33.21875 32.039062 C 33.394531 31.902344 33.542969 31.757812 33.699219 31.601562 C 33.8125 31.503906 33.929688 31.40625 34.042969 31.3125 C 34.335938 31.066406 34.574219 30.808594 34.800781 30.5 Z M 34.800781 30.5 "></path><path style=" stroke:none;fill-rule:nonzero;fill:rgb(77.254902%,77.254902%,78.039216%);fill-opacity:1;" d="M 17.300781 17.300781 C 17.367188 17.332031 17.433594 17.367188 17.5 17.398438 C 17.089844 17.738281 16.707031 18.03125 16.199219 18.199219 C 16.128906 18.332031 16.0625 18.464844 16 18.601562 C 15.894531 18.71875 15.785156 18.835938 15.675781 18.949219 C 15.234375 19.441406 14.972656 20.003906 14.699219 20.601562 C 14.574219 20.222656 14.636719 20.160156 14.800781 19.800781 C 14.828125 19.726562 14.855469 19.652344 14.886719 19.578125 C 15.085938 19.074219 15.214844 18.863281 15.699219 18.601562 C 15.859375 18.402344 16.003906 18.195312 16.148438 17.984375 C 16.320312 17.777344 16.449219 17.695312 16.699219 17.601562 C 16.800781 17.601562 16.898438 17.601562 17 17.601562 C 17 17.535156 17 17.46875 17 17.398438 C 17.097656 17.367188 17.199219 17.335938 17.300781 17.300781 Z M 17.300781 17.300781 "></path><path style=" stroke:none;fill-rule:nonzero;fill:rgb(63.921569%,52.156863%,87.45098%);fill-opacity:1;" d="M 32.5 32.5 C 32.566406 32.53125 32.632812 32.566406 32.699219 32.601562 C 31.65625 33.445312 30.59375 33.589844 29.300781 33.5 C 29.605469 33.320312 29.820312 33.277344 30.175781 33.289062 C 30.253906 33.289062 30.335938 33.292969 30.417969 33.292969 C 30.476562 33.296875 30.539062 33.296875 30.601562 33.300781 C 30.632812 33.199219 30.664062 33.101562 30.699219 33 C 30.820312 32.984375 30.820312 32.984375 30.941406 32.96875 C 31.519531 32.878906 31.984375 32.785156 32.5 32.5 Z M 32.5 32.5 "></path><path style=" stroke:none;fill-rule:nonzero;fill:rgb(41.176471%,40.784314%,40.784314%);fill-opacity:1;" d="M 20.601562 21.300781 C 20.929688 21.300781 21.261719 21.300781 21.601562 21.300781 C 21.390625 21.507812 21.289062 21.550781 21.019531 21.636719 C 20.242188 21.917969 19.789062 22.492188 19.398438 23.199219 C 19.332031 23.367188 19.261719 23.53125 19.199219 23.699219 C 19.132812 23.699219 19.066406 23.699219 19 23.699219 C 19 23.503906 19 23.304688 19 23.101562 C 19.097656 23.101562 19.199219 23.101562 19.300781 23.101562 C 19.308594 23.039062 19.320312 22.980469 19.332031 22.917969 C 19.410156 22.667969 19.515625 22.582031 19.699219 22.398438 C 19.769531 22.191406 19.769531 22.191406 19.800781 22 C 19.898438 22 19.996094 22 20.101562 22 C 20.101562 21.933594 20.101562 21.867188 20.101562 21.800781 C 20.199219 21.765625 20.296875 21.734375 20.398438 21.699219 C 20.464844 21.566406 20.53125 21.4375 20.601562 21.300781 Z M 20.601562 21.300781 "></path><path style=" stroke:none;fill-rule:nonzero;fill:rgb(55.294118%,38.039216%,89.411765%);fill-opacity:1;" d="M 34.898438 36.300781 C 34.761719 36.449219 34.761719 36.449219 34.601562 36.601562 C 34.535156 36.601562 34.46875 36.601562 34.398438 36.601562 C 34.367188 36.699219 34.335938 36.796875 34.300781 36.898438 C 33.753906 37.152344 33.195312 37.238281 32.601562 37.199219 C 32.84375 36.863281 33.136719 36.832031 33.527344 36.761719 C 33.582031 36.742188 33.640625 36.722656 33.699219 36.699219 C 33.734375 36.601562 33.765625 36.503906 33.800781 36.398438 C 34.171875 36.3125 34.515625 36.292969 34.898438 36.300781 Z M 34.898438 36.300781 "></path><path style=" stroke:none;fill-rule:nonzero;fill:rgb(56.470588%,39.607843%,90.588235%);fill-opacity:1;" d="M 39.300781 30.601562 C 39.332031 30.601562 39.367188 30.601562 39.398438 30.601562 C 39.445312 31.070312 39.351562 31.328125 39.101562 31.726562 C 38.957031 31.96875 38.878906 32.226562 38.800781 32.5 C 38.734375 32.5 38.667969 32.5 38.601562 32.5 C 38.585938 32.613281 38.574219 32.726562 38.5625 32.84375 C 38.542969 32.960938 38.519531 33.078125 38.5 33.199219 C 38.433594 33.234375 38.367188 33.265625 38.300781 33.300781 C 38.261719 32.746094 38.367188 32.371094 38.632812 31.894531 C 38.691406 31.777344 38.753906 31.660156 38.816406 31.539062 C 38.878906 31.429688 38.9375 31.316406 39 31.199219 C 39.101562 31 39.199219 30.800781 39.300781 30.601562 Z M 39.300781 30.601562 "></path><path style=" stroke:none;fill-rule:nonzero;fill:rgb(80.784314%,80.784314%,81.176471%);fill-opacity:1;" d="M 21.699219 16.300781 C 21.566406 16.332031 21.4375 16.367188 21.300781 16.398438 C 21.300781 16.464844 21.300781 16.53125 21.300781 16.601562 C 21.183594 16.605469 21.183594 16.605469 21.066406 16.609375 C 20.496094 16.648438 20.023438 16.703125 19.503906 16.929688 C 19.117188 17.0625 18.707031 17.074219 18.300781 17.101562 C 19.304688 16.429688 20.511719 16.253906 21.699219 16.300781 Z M 21.699219 16.300781 "></path><path style=" stroke:none;fill-rule:nonzero;fill:rgb(33.72549%,32.941176%,32.941176%);fill-opacity:1;" d="M 21 17.5 C 20.636719 17.742188 20.429688 17.714844 20 17.699219 C 20 17.832031 20 17.964844 20 18.101562 C 19.339844 18.230469 18.679688 18.363281 18 18.5 C 18.28125 18.078125 18.621094 18.019531 19.101562 17.898438 C 19.40625 17.882812 19.40625 17.882812 19.601562 17.898438 C 19.601562 17.835938 19.601562 17.769531 19.601562 17.699219 C 20.09375 17.503906 20.476562 17.480469 21 17.5 Z M 21 17.5 "></path><path style=" stroke:none;fill-rule:nonzero;fill:rgb(58.431373%,41.568627%,85.490196%);fill-opacity:1;" d="M 35.101562 30.101562 C 35.164062 30.101562 35.230469 30.101562 35.300781 30.101562 C 35.226562 30.675781 35.226562 30.675781 35 30.898438 C 34.9375 31.105469 34.9375 31.105469 34.898438 31.300781 C 34.835938 31.300781 34.769531 31.300781 34.699219 31.300781 C 34.699219 31.367188 34.699219 31.433594 34.699219 31.5 C 34.410156 31.703125 34.261719 31.800781 33.898438 31.800781 C 33.898438 31.867188 33.898438 31.933594 33.898438 32 C 33.835938 32 33.769531 32 33.699219 32 C 33.808594 31.671875 33.867188 31.625 34.132812 31.425781 C 34.503906 31.121094 34.683594 30.824219 34.898438 30.398438 C 34.964844 30.300781 35.03125 30.203125 35.101562 30.101562 Z M 35.101562 30.101562 "></path><path style=" stroke:none;fill-rule:nonzero;fill:rgb(68.235294%,57.647059%,88.627451%);fill-opacity:1;" d="M 35.699219 28.101562 C 35.734375 28.101562 35.765625 28.101562 35.800781 28.101562 C 35.800781 28.328125 35.804688 28.554688 35.804688 28.78125 C 35.808594 28.90625 35.808594 29.035156 35.808594 29.164062 C 35.800781 29.5 35.800781 29.5 35.699219 29.800781 C 35.632812 29.800781 35.566406 29.800781 35.5 29.800781 C 35.46875 29.898438 35.433594 29.996094 35.398438 30.101562 C 35.335938 30.101562 35.269531 30.101562 35.199219 30.101562 C 35.269531 29.667969 35.351562 29.246094 35.449219 28.820312 C 35.476562 28.703125 35.5 28.589844 35.527344 28.472656 C 35.601562 28.199219 35.601562 28.199219 35.699219 28.101562 Z M 35.699219 28.101562 "></path><path style=" stroke:none;fill-rule:nonzero;fill:rgb(87.45098%,87.45098%,87.843137%);fill-opacity:1;" d="M 15.300781 19.300781 C 15.332031 19.367188 15.367188 19.433594 15.398438 19.5 C 15.328125 19.675781 15.328125 19.675781 15.21875 19.882812 C 14.761719 20.757812 14.566406 21.632812 14.398438 22.601562 C 14.367188 22.601562 14.335938 22.601562 14.300781 22.601562 C 14.289062 21.4375 14.414062 20.679688 15.101562 19.699219 C 15.167969 19.566406 15.238281 19.433594 15.300781 19.300781 Z M 15.300781 19.300781 "></path><path style=" stroke:none;fill-rule:nonzero;fill:rgb(72.941176%,73.333333%,72.156863%);fill-opacity:1;" d="M 14.800781 24.398438 C 14.832031 24.398438 14.867188 24.398438 14.898438 24.398438 C 14.90625 24.464844 14.914062 24.527344 14.917969 24.59375 C 14.925781 24.675781 14.933594 24.757812 14.945312 24.84375 C 14.953125 24.925781 14.960938 25.007812 14.96875 25.09375 C 14.980469 25.296875 14.980469 25.296875 15.101562 25.398438 C 15.507812 25.421875 15.914062 25.417969 16.320312 25.417969 C 16.523438 25.417969 16.726562 25.421875 16.929688 25.421875 C 17.058594 25.421875 17.1875 25.421875 17.320312 25.421875 C 17.4375 25.421875 17.558594 25.425781 17.679688 25.425781 C 18.070312 25.394531 18.351562 25.273438 18.699219 25.101562 C 18.632812 25.265625 18.566406 25.429688 18.5 25.601562 C 17.988281 25.601562 17.476562 25.605469 16.96875 25.605469 C 16.792969 25.605469 16.621094 25.605469 16.445312 25.609375 C 16.195312 25.609375 15.945312 25.609375 15.699219 25.609375 C 15.617188 25.609375 15.539062 25.609375 15.460938 25.613281 C 15.273438 25.613281 15.085938 25.605469 14.898438 25.601562 C 14.800781 25.5 14.800781 25.5 14.789062 25.25 C 14.792969 25.148438 14.792969 25.046875 14.792969 24.945312 C 14.792969 24.84375 14.796875 24.742188 14.796875 24.636719 C 14.796875 24.558594 14.796875 24.480469 14.800781 24.398438 Z M 14.800781 24.398438 "></path><path style=" stroke:none;fill-rule:nonzero;fill:rgb(58.039216%,41.568627%,92.156863%);fill-opacity:1;" d="M 18.300781 27.699219 C 18.332031 27.699219 18.367188 27.699219 18.398438 27.699219 C 18.402344 27.78125 18.402344 27.863281 18.40625 27.945312 C 18.414062 28.316406 18.425781 28.6875 18.4375 29.054688 C 18.441406 29.183594 18.445312 29.3125 18.445312 29.441406 C 18.464844 30.066406 18.5 30.609375 18.699219 31.199219 C 18.664062 31.445312 18.664062 31.445312 18.601562 31.601562 C 18.601562 31.535156 18.601562 31.46875 18.601562 31.398438 C 18.535156 31.398438 18.46875 31.398438 18.398438 31.398438 C 18.300781 30.972656 18.265625 30.546875 18.238281 30.113281 C 18.234375 30.039062 18.226562 29.964844 18.222656 29.890625 C 18.1875 29.152344 18.230469 28.433594 18.300781 27.699219 Z M 18.300781 27.699219 "></path><path style=" stroke:none;fill-rule:nonzero;fill:rgb(85.882353%,85.882353%,86.666667%);fill-opacity:1;" d="M 12.199219 15.398438 C 12.265625 15.398438 12.332031 15.398438 12.398438 15.398438 C 12.382812 15.574219 12.382812 15.574219 12.300781 15.800781 C 12.179688 15.894531 12.179688 15.894531 12.054688 15.992188 C 11.773438 16.222656 11.710938 16.359375 11.601562 16.699219 C 11.535156 16.835938 11.46875 16.96875 11.398438 17.101562 C 11.335938 17.101562 11.269531 17.101562 11.199219 17.101562 C 11.199219 17.230469 11.199219 17.363281 11.199219 17.5 C 11.132812 17.5 11.066406 17.5 11 17.5 C 11 17.699219 11 17.894531 11 18.101562 C 10.933594 18.101562 10.867188 18.101562 10.800781 18.101562 C 10.832031 17.835938 10.867188 17.570312 10.898438 17.300781 C 10.964844 17.300781 11.03125 17.300781 11.101562 17.300781 C 11.101562 17.167969 11.101562 17.035156 11.101562 16.898438 C 11.164062 16.898438 11.230469 16.898438 11.300781 16.898438 C 11.324219 16.816406 11.34375 16.730469 11.367188 16.644531 C 11.519531 16.25 11.710938 15.910156 12 15.601562 C 12.066406 15.601562 12.132812 15.601562 12.199219 15.601562 C 12.199219 15.535156 12.199219 15.46875 12.199219 15.398438 Z M 12.199219 15.398438 "></path><path style=" stroke:none;fill-rule:nonzero;fill:rgb(56.470588%,37.254902%,92.156863%);fill-opacity:1;" d="M 35.699219 29.5 C 35.796875 29.757812 35.808594 29.878906 35.71875 30.144531 C 35.679688 30.226562 35.640625 30.3125 35.601562 30.398438 C 35.558594 30.527344 35.558594 30.527344 35.519531 30.65625 C 35.371094 30.960938 35.175781 31.105469 34.898438 31.300781 C 34.960938 30.914062 35.078125 30.613281 35.257812 30.269531 C 35.300781 30.179688 35.347656 30.09375 35.394531 30 C 35.445312 29.902344 35.445312 29.902344 35.5 29.800781 C 35.566406 29.800781 35.632812 29.800781 35.699219 29.800781 C 35.699219 29.699219 35.699219 29.601562 35.699219 29.5 Z M 34.699219 31.300781 C 34.800781 31.347656 34.800781 31.347656 34.898438 31.398438 C 34.800781 31.449219 34.800781 31.449219 34.699219 31.5 C 34.699219 31.433594 34.699219 31.367188 34.699219 31.300781 Z M 34.699219 31.300781 "></path><path style=" stroke:none;fill-rule:nonzero;fill:rgb(70.196078%,61.568627%,87.843137%);fill-opacity:1;" d="M 39.398438 31 C 39.535156 31.367188 39.460938 31.570312 39.304688 31.925781 C 39.269531 32.015625 39.230469 32.101562 39.191406 32.195312 C 39.144531 32.296875 39.144531 32.296875 39.101562 32.398438 C 39.035156 32.398438 38.96875 32.398438 38.898438 32.398438 C 38.890625 32.476562 38.878906 32.558594 38.867188 32.636719 C 38.800781 32.898438 38.800781 32.898438 38.5 33.101562 C 38.53125 32.902344 38.566406 32.703125 38.601562 32.5 C 38.664062 32.5 38.730469 32.5 38.800781 32.5 C 38.824219 32.402344 38.847656 32.300781 38.875 32.199219 C 38.996094 31.773438 39.191406 31.390625 39.398438 31 Z M 39.398438 31 "></path><path style=" stroke:none;fill-rule:nonzero;fill:rgb(57.647059%,43.137255%,87.843137%);fill-opacity:1;" d="M 18.699219 31.800781 C 18.957031 32.042969 19.175781 32.257812 19.355469 32.5625 C 19.507812 32.816406 19.664062 32.929688 19.898438 33.101562 C 19.898438 33.164062 19.898438 33.230469 19.898438 33.300781 C 19.964844 33.332031 20.03125 33.367188 20.101562 33.398438 C 19.671875 33.351562 19.472656 33.234375 19.199219 32.898438 C 19.199219 32.835938 19.199219 32.769531 19.199219 32.699219 C 19.132812 32.699219 19.066406 32.699219 19 32.699219 C 18.875 32.402344 18.769531 32.113281 18.699219 31.800781 Z M 18.699219 31.800781 "></path><path style=" stroke:none;fill-rule:nonzero;fill:rgb(61.568627%,48.235294%,88.235294%);fill-opacity:1;" d="M 37.898438 33.398438 C 38.03125 33.398438 38.164062 33.398438 38.300781 33.398438 C 38.300781 33.464844 38.300781 33.53125 38.300781 33.601562 C 38.234375 33.601562 38.167969 33.601562 38.101562 33.601562 C 38.074219 33.660156 38.046875 33.714844 38.019531 33.777344 C 37.898438 34.007812 37.757812 34.179688 37.585938 34.375 C 37.507812 34.46875 37.507812 34.46875 37.425781 34.5625 C 37.382812 34.605469 37.34375 34.652344 37.300781 34.699219 C 37.199219 34.398438 37.199219 34.398438 37.269531 34.207031 C 37.417969 33.96875 37.597656 33.792969 37.800781 33.601562 C 37.832031 33.535156 37.867188 33.46875 37.898438 33.398438 Z M 37.898438 33.398438 "></path><path style=" stroke:none;fill-rule:nonzero;fill:rgb(92.156863%,92.156863%,92.156863%);fill-opacity:1;" d="M 16.699219 17.800781 C 16.765625 17.832031 16.832031 17.867188 16.898438 17.898438 C 16.761719 18.058594 16.621094 18.21875 16.480469 18.375 C 16.402344 18.464844 16.324219 18.550781 16.246094 18.640625 C 16.011719 18.886719 15.769531 19.09375 15.5 19.300781 C 15.5 18.808594 15.871094 18.539062 16.199219 18.199219 C 16.363281 18.0625 16.527344 17.925781 16.699219 17.800781 Z M 16.699219 17.800781 "></path><path style=" stroke:none;fill-rule:nonzero;fill:rgb(21.568627%,20.784314%,21.176471%);fill-opacity:1;" d="M 22.386719 17.394531 C 22.492188 17.394531 22.492188 17.394531 22.597656 17.394531 C 22.765625 17.394531 22.933594 17.398438 23.101562 17.398438 C 23.101562 17.433594 23.101562 17.464844 23.101562 17.5 C 22.296875 17.628906 21.515625 17.734375 20.699219 17.699219 C 21.222656 17.351562 21.777344 17.386719 22.386719 17.394531 Z M 22.386719 17.394531 "></path><path style=" stroke:none;fill-rule:nonzero;fill:rgb(72.941176%,73.333333%,73.333333%);fill-opacity:1;" d="M 15.199219 18.898438 C 15.300781 18.898438 15.398438 18.898438 15.5 18.898438 C 15.351562 19.289062 15.175781 19.660156 14.988281 20.03125 C 14.933594 20.136719 14.878906 20.246094 14.824219 20.355469 C 14.761719 20.476562 14.761719 20.476562 14.699219 20.601562 C 14.574219 20.222656 14.636719 20.160156 14.800781 19.800781 C 14.871094 19.640625 14.941406 19.480469 15.011719 19.320312 C 15.074219 19.179688 15.136719 19.039062 15.199219 18.898438 Z M 15.199219 18.898438 "></path><path style=" stroke:none;fill-rule:nonzero;fill:rgb(52.941176%,52.941176%,52.941176%);fill-opacity:1;" d="M 15.800781 20.699219 C 15.832031 20.765625 15.867188 20.832031 15.898438 20.898438 C 15.875 20.964844 15.847656 21.03125 15.820312 21.101562 C 15.652344 21.523438 15.582031 21.957031 15.5 22.398438 C 15.433594 22.398438 15.367188 22.398438 15.300781 22.398438 C 15.300781 22.632812 15.300781 22.863281 15.300781 23.101562 C 15.265625 23.101562 15.234375 23.101562 15.199219 23.101562 C 15.183594 22.570312 15.214844 22.199219 15.398438 21.699219 C 15.4375 21.5 15.472656 21.300781 15.5 21.101562 C 15.566406 21.101562 15.632812 21.101562 15.699219 21.101562 C 15.734375 20.96875 15.765625 20.835938 15.800781 20.699219 Z M 15.800781 20.699219 "></path><path style=" stroke:none;fill-rule:nonzero;fill:rgb(67.45098%,56.078431%,87.45098%);fill-opacity:1;" d="M 34.398438 36.800781 C 33.757812 37.082031 33.3125 37.214844 32.601562 37.199219 C 32.863281 36.855469 33.140625 36.832031 33.554688 36.773438 C 33.671875 36.757812 33.789062 36.742188 33.90625 36.722656 C 34.199219 36.699219 34.199219 36.699219 34.398438 36.800781 Z M 34.398438 36.800781 "></path><path style=" stroke:none;fill-rule:nonzero;fill:rgb(72.54902%,72.941176%,73.72549%);fill-opacity:1;" d="M 13.5 14.398438 C 13.53125 14.464844 13.566406 14.53125 13.601562 14.601562 C 13.21875 14.992188 12.820312 15.347656 12.398438 15.699219 C 12.457031 15.316406 12.621094 15.144531 12.894531 14.882812 C 13 14.777344 13 14.777344 13.109375 14.671875 C 13.300781 14.5 13.300781 14.5 13.5 14.398438 Z M 13.5 14.398438 "></path><path style=" stroke:none;fill-rule:nonzero;fill:rgb(22.352941%,22.352941%,22.745098%);fill-opacity:1;" d="M 32.699219 17.300781 C 33.023438 17.296875 33.351562 17.296875 33.675781 17.292969 C 33.765625 17.292969 33.859375 17.292969 33.953125 17.292969 C 34.042969 17.289062 34.132812 17.289062 34.222656 17.289062 C 34.304688 17.289062 34.386719 17.289062 34.472656 17.289062 C 34.695312 17.300781 34.886719 17.339844 35.101562 17.398438 C 35.066406 17.53125 35.035156 17.664062 35 17.800781 C 34.9375 17.75 34.875 17.703125 34.808594 17.65625 C 34.394531 17.445312 34.027344 17.445312 33.570312 17.429688 C 33.484375 17.429688 33.402344 17.425781 33.316406 17.421875 C 33.109375 17.414062 32.90625 17.40625 32.699219 17.398438 C 32.699219 17.367188 32.699219 17.335938 32.699219 17.300781 Z M 32.699219 17.300781 "></path><path style=" stroke:none;fill-rule:nonzero;fill:rgb(44.313725%,43.921569%,44.313725%);fill-opacity:1;" d="M 18.898438 24.101562 C 18.933594 24.164062 18.964844 24.230469 19 24.300781 C 18.929688 24.507812 18.929688 24.507812 18.820312 24.75 C 18.78125 24.828125 18.746094 24.910156 18.710938 24.992188 C 18.601562 25.199219 18.601562 25.199219 18.398438 25.398438 C 18.1875 25.363281 18.1875 25.363281 18 25.300781 C 18.097656 25.300781 18.199219 25.300781 18.300781 25.300781 C 18.300781 25.199219 18.300781 25.101562 18.300781 25 C 18.367188 25 18.433594 25 18.5 25 C 18.527344 24.90625 18.558594 24.8125 18.585938 24.71875 C 18.699219 24.398438 18.699219 24.398438 18.898438 24.101562 Z M 18.898438 24.101562 "></path><path style=" stroke:none;fill-rule:nonzero;fill:rgb(89.019608%,89.411765%,89.803922%);fill-opacity:1;" d="M 20.101562 16.699219 C 19.496094 16.957031 18.957031 17.0625 18.300781 17.101562 C 18.855469 16.726562 19.4375 16.511719 20.101562 16.699219 Z M 20.101562 16.699219 "></path><path style=" stroke:none;fill-rule:nonzero;fill:rgb(78.431373%,70.980392%,90.588235%);fill-opacity:1;" d="M 35.898438 35.800781 C 35.964844 35.832031 36.03125 35.867188 36.101562 35.898438 C 35.929688 36.015625 35.757812 36.128906 35.585938 36.242188 C 35.492188 36.308594 35.398438 36.371094 35.300781 36.4375 C 34.988281 36.605469 34.746094 36.664062 34.398438 36.699219 C 34.839844 36.304688 35.347656 36.011719 35.898438 35.800781 Z M 35.898438 35.800781 "></path><path style=" stroke:none;fill-rule:nonzero;fill:rgb(70.980392%,62.745098%,88.627451%);fill-opacity:1;" d="M 18.601562 30.800781 C 18.824219 31.09375 18.992188 31.34375 19.101562 31.699219 C 19.0625 31.929688 19.0625 31.929688 19 32.101562 C 18.78125 31.925781 18.707031 31.832031 18.648438 31.550781 C 18.644531 31.460938 18.636719 31.375 18.632812 31.28125 C 18.625 31.191406 18.617188 31.101562 18.609375 31.007812 C 18.609375 30.941406 18.605469 30.871094 18.601562 30.800781 Z M 18.601562 30.800781 "></path><path style=" stroke:none;fill-rule:nonzero;fill:rgb(85.098039%,80.392157%,93.333333%);fill-opacity:1;" d="M 39.898438 29.199219 C 40.003906 29.527344 39.996094 29.785156 39.957031 30.125 C 39.945312 30.214844 39.9375 30.304688 39.925781 30.394531 C 39.914062 30.496094 39.914062 30.496094 39.898438 30.601562 C 39.835938 30.601562 39.769531 30.601562 39.699219 30.601562 C 39.667969 30.664062 39.632812 30.730469 39.601562 30.800781 C 39.648438 30.242188 39.730469 29.734375 39.898438 29.199219 Z M 39.898438 29.199219 "></path><path style=" stroke:none;fill-rule:nonzero;fill:rgb(25.882353%,25.490196%,25.490196%);fill-opacity:1;" d="M 18 18.601562 C 18 18.664062 18 18.730469 18 18.800781 C 17.941406 18.820312 17.882812 18.835938 17.824219 18.855469 C 17.582031 19.011719 17.527344 19.105469 17.394531 19.355469 C 17.199219 19.699219 17.199219 19.699219 16.898438 19.800781 C 16.960938 19.441406 17.101562 19.246094 17.335938 18.976562 C 17.398438 18.90625 17.457031 18.832031 17.519531 18.761719 C 17.699219 18.601562 17.699219 18.601562 18 18.601562 Z M 18 18.601562 "></path><path style=" stroke:none;fill-rule:nonzero;fill:rgb(69.019608%,68.627451%,68.627451%);fill-opacity:1;" d="M 19.199219 17.601562 C 19.429688 17.601562 19.660156 17.601562 19.898438 17.601562 C 19.800781 17.632812 19.703125 17.664062 19.601562 17.699219 C 19.601562 17.765625 19.601562 17.832031 19.601562 17.898438 C 19.054688 18.046875 19.054688 18.046875 18.5 18.199219 C 18.5 18.132812 18.5 18.066406 18.5 18 C 18.597656 18 18.699219 18 18.800781 18 C 18.800781 17.933594 18.800781 17.867188 18.800781 17.800781 C 18.933594 17.800781 19.0625 17.800781 19.199219 17.800781 C 19.199219 17.734375 19.199219 17.667969 19.199219 17.601562 Z M 19.199219 17.601562 "></path><path style=" stroke:none;fill-rule:nonzero;fill:rgb(54.509804%,35.686275%,91.372549%);fill-opacity:1;" d="M 18.398438 31.398438 C 18.464844 31.398438 18.53125 31.398438 18.601562 31.398438 C 18.632812 31.597656 18.664062 31.796875 18.699219 32 C 18.601562 32.050781 18.601562 32.050781 18.5 32.101562 C 18.5 32.035156 18.5 31.96875 18.5 31.898438 C 18.433594 31.898438 18.367188 31.898438 18.300781 31.898438 C 18.265625 32 18.234375 32.097656 18.199219 32.199219 C 18.132812 32.132812 18.066406 32.066406 18 32 C 18.128906 31.796875 18.261719 31.597656 18.398438 31.398438 Z M 18.398438 31.398438 "></path><path style=" stroke:none;fill-rule:nonzero;fill:rgb(18.039216%,17.254902%,17.647059%);fill-opacity:1;" d="M 19.199219 22.101562 C 19.265625 22.101562 19.332031 22.101562 19.398438 22.101562 C 19.398438 22.164062 19.398438 22.230469 19.398438 22.300781 C 19.5 22.300781 19.597656 22.300781 19.699219 22.300781 C 19.734375 22.234375 19.765625 22.167969 19.800781 22.101562 C 19.742188 22.433594 19.644531 22.574219 19.398438 22.800781 C 19.335938 22.898438 19.269531 22.996094 19.199219 23.101562 C 19.199219 22.769531 19.199219 22.441406 19.199219 22.101562 Z M 19.199219 22.101562 "></path><path style=" stroke:none;fill-rule:nonzero;fill:rgb(22.352941%,21.568627%,21.960784%);fill-opacity:1;" d="M 18.898438 23.398438 C 18.933594 23.398438 18.964844 23.398438 19 23.398438 C 19.050781 24.039062 19.050781 24.039062 18.800781 24.34375 C 18.699219 24.421875 18.699219 24.421875 18.601562 24.5 C 18.566406 24.035156 18.621094 23.777344 18.898438 23.398438 Z M 18.898438 23.398438 "></path><path style=" stroke:none;fill-rule:nonzero;fill:rgb(31.764706%,31.372549%,31.764706%);fill-opacity:1;" d="M 20.601562 21.300781 C 20.929688 21.300781 21.261719 21.300781 21.601562 21.300781 C 21.359375 21.539062 21.265625 21.535156 20.9375 21.5625 C 20.855469 21.570312 20.773438 21.578125 20.691406 21.585938 C 20.628906 21.589844 20.566406 21.59375 20.5 21.601562 C 20.53125 21.5 20.566406 21.402344 20.601562 21.300781 Z M 20.601562 21.300781 "></path><path style=" stroke:none;fill-rule:nonzero;fill:rgb(73.72549%,73.333333%,74.901961%);fill-opacity:1;" d="M 11.199219 17.101562 C 11.265625 17.132812 11.332031 17.164062 11.398438 17.199219 C 11.269531 17.695312 11.136719 18.191406 11 18.699219 C 10.96875 18.699219 10.933594 18.699219 10.898438 18.699219 C 10.933594 18.304688 10.964844 17.90625 11 17.5 C 11.066406 17.5 11.132812 17.5 11.199219 17.5 C 11.199219 17.367188 11.199219 17.234375 11.199219 17.101562 Z M 11.199219 17.101562 "></path><path style=" stroke:none;fill-rule:nonzero;fill:rgb(63.529412%,52.156863%,83.137255%);fill-opacity:1;" d="M 35.101562 30.101562 C 35.164062 30.101562 35.230469 30.101562 35.300781 30.101562 C 35.226562 30.675781 35.226562 30.675781 35 30.898438 C 34.902344 30.867188 34.800781 30.835938 34.699219 30.800781 C 34.832031 30.570312 34.964844 30.339844 35.101562 30.101562 Z M 35.101562 30.101562 "></path><path style=" stroke:none;fill-rule:nonzero;fill:rgb(53.72549%,34.509804%,93.333333%);fill-opacity:1;" d="M 37.800781 33.601562 C 37.734375 33.730469 37.667969 33.863281 37.601562 34 C 37.46875 34 37.335938 34 37.199219 34 C 37.199219 33.933594 37.199219 33.867188 37.199219 33.800781 C 37.574219 33.601562 37.574219 33.601562 37.800781 33.601562 Z M 37.101562 34 C 37.132812 34.097656 37.164062 34.199219 37.199219 34.300781 C 37.101562 34.367188 37.003906 34.433594 36.898438 34.5 C 36.988281 34.113281 36.988281 34.113281 37.101562 34 Z M 37.101562 34 "></path><path style=" stroke:none;fill-rule:nonzero;fill:rgb(84.313725%,79.215686%,92.54902%);fill-opacity:1;" d="M 32.800781 32.398438 C 32.355469 32.675781 32.027344 32.847656 31.5 32.898438 C 31.863281 32.601562 31.863281 32.601562 32.199219 32.601562 C 32.199219 32.535156 32.199219 32.46875 32.199219 32.398438 C 32.574219 32.289062 32.574219 32.289062 32.800781 32.398438 Z M 32.800781 32.398438 "></path><path style=" stroke:none;fill-rule:nonzero;fill:rgb(57.254902%,43.529412%,88.235294%);fill-opacity:1;" d="M 38.699219 32.300781 C 38.734375 32.367188 38.765625 32.433594 38.800781 32.5 C 38.734375 32.5 38.667969 32.5 38.601562 32.5 C 38.585938 32.613281 38.574219 32.726562 38.5625 32.84375 C 38.542969 32.960938 38.519531 33.078125 38.5 33.199219 C 38.402344 33.25 38.402344 33.25 38.300781 33.300781 C 38.273438 32.96875 38.273438 32.96875 38.300781 32.601562 C 38.5 32.40625 38.5 32.40625 38.699219 32.300781 Z M 38.699219 32.300781 "></path><path style=" stroke:none;fill-rule:nonzero;fill:rgb(56.862745%,37.647059%,88.627451%);fill-opacity:1;" d="M 32.300781 36.800781 C 32.597656 36.847656 32.597656 36.847656 32.898438 36.898438 C 32.789062 37.050781 32.789062 37.050781 32.601562 37.199219 C 32.28125 37.21875 32.28125 37.21875 32 37.199219 C 32.097656 37.066406 32.199219 36.9375 32.300781 36.800781 Z M 32.300781 36.800781 "></path><path style=" stroke:none;fill-rule:nonzero;fill:rgb(31.764706%,31.372549%,31.372549%);fill-opacity:1;" d="M 19.398438 22.699219 C 19.5 22.898438 19.5 22.898438 19.445312 23.09375 C 19.414062 23.167969 19.386719 23.238281 19.355469 23.3125 C 19.328125 23.386719 19.296875 23.457031 19.269531 23.53125 C 19.246094 23.585938 19.222656 23.644531 19.199219 23.699219 C 19.132812 23.699219 19.066406 23.699219 19 23.699219 C 19 23.503906 19 23.304688 19 23.101562 C 19.097656 23.101562 19.199219 23.101562 19.300781 23.101562 C 19.332031 22.96875 19.367188 22.835938 19.398438 22.699219 Z M 19.398438 22.699219 "></path><path style=" stroke:none;fill-rule:nonzero;fill:rgb(23.921569%,23.921569%,23.921569%);fill-opacity:1;" d="M 15.898438 20.699219 C 16.097656 20.75 16.097656 20.75 16.300781 20.800781 C 16.164062 21.050781 16.164062 21.050781 16 21.300781 C 15.933594 21.300781 15.867188 21.300781 15.800781 21.300781 C 15.832031 21.101562 15.867188 20.902344 15.898438 20.699219 Z M 15.898438 20.699219 "></path><path style=" stroke:none;fill-rule:nonzero;fill:rgb(60.392157%,46.27451%,85.490196%);fill-opacity:1;" d="M 34.5 36.300781 C 34.632812 36.332031 34.765625 36.367188 34.898438 36.398438 C 34.382812 36.722656 34.382812 36.722656 34.199219 36.800781 C 34.101562 36.765625 34.003906 36.734375 33.898438 36.699219 C 33.964844 36.632812 34.03125 36.566406 34.101562 36.5 C 34.230469 36.5 34.363281 36.5 34.5 36.5 C 34.5 36.433594 34.5 36.367188 34.5 36.300781 Z M 34.5 36.300781 "></path><path style=" stroke:none;fill-rule:nonzero;fill:rgb(65.490196%,55.294118%,87.058824%);fill-opacity:1;" d="M 19.898438 33.101562 C 20.027344 33.128906 20.15625 33.15625 20.289062 33.1875 C 20.394531 33.210938 20.394531 33.210938 20.503906 33.238281 C 20.699219 33.300781 20.699219 33.300781 20.898438 33.5 C 20.703125 33.5 20.503906 33.5 20.300781 33.5 C 20.300781 33.433594 20.300781 33.367188 20.300781 33.300781 C 20.167969 33.300781 20.035156 33.300781 19.898438 33.300781 C 19.898438 33.234375 19.898438 33.167969 19.898438 33.101562 Z M 19.898438 33.101562 "></path><path style=" stroke:none;fill-rule:nonzero;fill:rgb(67.058824%,55.686275%,87.843137%);fill-opacity:1;" d="M 33.300781 32 C 33.332031 32.132812 33.367188 32.265625 33.398438 32.398438 C 33.167969 32.433594 32.9375 32.464844 32.699219 32.5 C 33.074219 32.113281 33.074219 32.113281 33.300781 32 Z M 33.300781 32 "></path><path style=" stroke:none;fill-rule:nonzero;fill:rgb(81.568627%,81.568627%,81.960784%);fill-opacity:1;" d="M 14.800781 24.398438 C 14.832031 24.398438 14.867188 24.398438 14.898438 24.398438 C 14.902344 24.460938 14.90625 24.523438 14.910156 24.585938 C 14.917969 24.667969 14.925781 24.746094 14.929688 24.832031 C 14.9375 24.910156 14.941406 24.992188 14.949219 25.074219 C 15.007812 25.335938 15.097656 25.429688 15.300781 25.601562 C 15.136719 25.566406 14.96875 25.535156 14.800781 25.5 C 14.800781 25.136719 14.800781 24.773438 14.800781 24.398438 Z M 14.800781 24.398438 "></path><path style=" stroke:none;fill-rule:nonzero;fill:rgb(60.784314%,47.058824%,85.882353%);fill-opacity:1;" d="M 34.300781 31.300781 C 34.332031 31.398438 34.367188 31.496094 34.398438 31.601562 C 34.335938 31.664062 34.269531 31.730469 34.199219 31.800781 C 34.101562 31.800781 34.003906 31.800781 33.898438 31.800781 C 33.898438 31.867188 33.898438 31.933594 33.898438 32 C 33.835938 32 33.769531 32 33.699219 32 C 33.824219 31.632812 33.992188 31.527344 34.300781 31.300781 Z M 34.300781 31.300781 "></path></g></svg>